<?xml version="1.0" standalone="no"?>
<!DOCTYPE svg PUBLIC "-//W3C//DTD SVG 20010904//EN"
 "http://www.w3.org/TR/2001/REC-SVG-20010904/DTD/svg10.dtd">
<svg version="1.0" xmlns="http://www.w3.org/2000/svg"
 width="192.000000pt" height="192.000000pt" viewBox="0 0 192.000000 192.000000"
 preserveAspectRatio="xMidYMid meet">
<metadata>
Created by potrace 1.10, written by Peter Selinger 2001-2011
</metadata>
<g transform="translate(0.000000,192.000000) scale(0.100000,-0.100000)"
fill="#000000" stroke="none">
<path d="M944 1663 c-29 -45 -176 -243 -180 -243 -2 0 -4 38 -4 85 0 71 2 83
15 79 9 -4 15 0 15 10 0 9 -4 16 -10 16 -5 0 -10 5 -10 11 0 5 5 7 10 4 23
-14 7 12 -21 34 l-30 23 -40 -26 c-42 -28 -61 -57 -41 -64 16 -5 17 -292 1
-292 -6 0 -8 -7 -5 -16 4 -12 1 -14 -14 -9 -15 5 -18 3 -14 -9 4 -11 0 -16
-11 -16 -9 0 -13 -4 -10 -10 3 -5 1 -10 -5 -10 -6 0 -8 -4 -5 -10 3 -5 1 -10
-5 -10 -22 0 -4 -23 20 -27 36 -5 37 -13 2 -13 -18 0 -32 5 -32 10 0 19 -18
10 -23 -12 -3 -13 -15 -50 -26 -82 -12 -33 -21 -79 -21 -103 l0 -43 -54 0 -55
0 0 -55 0 -55 62 -1 62 0 42 -87 c31 -64 79 -133 183 -262 78 -96 162 -202
187 -235 24 -33 48 -61 52 -63 4 -1 24 30 46 70 37 70 89 144 220 313 90 116
135 183 135 200 0 8 4 15 9 15 12 0 31 56 23 65 -4 3 0 10 8 15 12 8 11 10 -5
10 -17 0 -17 2 -5 10 13 9 13 10 0 10 -10 0 -11 3 -4 8 6 4 13 20 16 35 5 26
3 28 -17 23 -27 -7 -42 19 -24 40 7 9 8 14 1 14 -6 0 -12 -5 -14 -11 -2 -7
-24 27 -47 75 -50 99 -115 171 -173 188 -35 10 -52 28 -28 28 6 0 10 4 10 10
0 11 -75 33 -98 28 -9 -2 4 -8 31 -12 47 -7 62 -21 30 -28 -12 -3 6 -16 48
-36 37 -18 81 -48 98 -67 32 -37 83 -129 79 -142 -2 -5 7 -19 20 -33 12 -13
28 -41 34 -62 6 -22 15 -35 22 -31 6 3 5 0 -1 -8 -7 -7 -13 -31 -13 -52 0 -50
-25 -103 -63 -130 -16 -12 -45 -53 -64 -92 -31 -61 -138 -215 -150 -215 -3 0
6 17 18 37 13 20 17 33 11 29 -18 -11 -52 -82 -44 -91 4 -5 2 -5 -5 -1 -13 7
-42 -33 -83 -116 -26 -53 -35 -58 -45 -28 -3 11 -11 20 -16 20 -5 0 -9 5 -9
11 0 5 5 7 11 3 8 -4 8 0 0 15 -14 25 -23 28 -14 4 7 -22 0 -15 -57 57 -24 30
-50 62 -57 70 -28 31 -59 86 -56 96 2 6 -3 17 -12 24 -8 7 -15 9 -15 4 0 -16
-71 70 -107 130 -20 33 -43 69 -51 79 -8 9 -13 20 -10 23 3 2 31 -28 61 -69
86 -114 151 -169 228 -190 82 -23 200 -28 225 -10 24 18 39 16 24 -2 -7 -9
-11 -18 -8 -20 3 -3 10 5 17 18 14 27 66 58 85 51 10 -4 15 10 18 53 3 32 5
58 4 59 0 1 -23 4 -50 8 -45 6 -47 5 -35 -12 13 -15 12 -16 -3 -4 -10 8 -16
17 -15 21 1 4 -13 21 -32 36 -18 16 -42 49 -52 73 -22 51 -22 52 -9 52 6 0 10
-8 10 -17 0 -19 39 -85 41 -68 0 6 4 0 9 -12 5 -12 20 -29 33 -37 30 -21 115
-36 141 -27 14 6 -2 10 -49 13 -61 5 -72 10 -92 34 l-22 29 26 27 c31 33 23
36 -17 8 l-29 -21 -11 21 c-15 29 -5 40 38 40 54 0 70 -29 43 -76 -14 -23 -16
-34 -8 -34 7 0 21 16 31 35 22 40 28 39 31 -5 2 -22 -2 -30 -14 -30 -14 -1
-13 -2 2 -11 30 -17 48 -4 37 26 -6 16 -6 25 0 25 10 0 14 -15 11 -34 -1 -4
13 -6 31 -2 18 3 38 7 45 8 23 3 56 90 55 145 -3 105 -63 165 -165 165 -40 -1
-61 -8 -96 -32 l-46 -31 39 36 c56 50 114 56 198 20 25 -10 -35 98 -77 138
-63 61 -119 82 -220 82 -77 0 -98 -4 -147 -27 -64 -30 -142 -105 -160 -155 -7
-18 -14 -33 -18 -33 -3 0 -6 -30 -6 -68 -1 -37 0 -53 3 -37 27 186 131 294
302 311 111 12 233 -50 289 -146 14 -25 19 -40 11 -34 -8 6 -31 12 -53 13 -28
1 -44 9 -59 28 -32 41 -92 63 -172 63 -62 0 -77 -4 -125 -32 -70 -42 -110
-114 -117 -211 -5 -58 -2 -73 26 -132 20 -44 35 -64 42 -59 8 4 9 3 5 -4 -11
-17 79 -70 133 -78 25 -4 63 -2 86 4 43 11 46 10 95 -32 30 -25 32 -29 17 -38
-9 -5 -17 -14 -17 -19 0 -6 7 -3 16 5 8 9 22 16 31 16 10 0 13 5 8 18 -17 41
-18 55 -4 50 8 -3 14 -18 14 -38 0 -30 -6 -38 -46 -63 -108 -66 -285 -56 -388
21 -175 132 -234 350 -145 537 14 32 40 73 57 92 l31 35 -25 19 c-13 10 -19
19 -12 19 6 0 19 -7 27 -16 14 -14 19 -13 48 10 18 13 62 34 98 46 83 28 218
24 293 -9 27 -11 51 -21 54 -21 15 0 -31 39 -53 44 -18 5 -24 13 -24 34 l-1
27 -14 -30 -13 -30 -3 35 -2 35 -7 -35 -7 -35 -3 35 -2 35 -8 -30 c-7 -29 -8
-29 -10 10 l-3 40 -8 -40 c-6 -35 -7 -33 -6 22 1 33 -1 59 -5 57 -4 -2 -6 11
-5 30 2 26 5 32 15 24 6 -6 12 -17 12 -24 0 -8 4 -14 8 -14 4 0 16 -14 26 -31
10 -17 30 -43 45 -58 38 -36 85 -101 75 -101 -5 0 4 -9 20 -19 17 -11 33 -18
38 -15 4 3 8 -2 8 -10 0 -20 1 -21 -54 10 -56 31 -61 26 -8 -8 43 -29 112 -94
106 -100 -2 -3 2 -5 10 -5 8 0 12 6 9 14 -3 7 0 13 6 13 6 0 11 -4 11 -9 0 -5
3 -17 6 -25 5 -12 2 -15 -10 -10 -9 3 -16 1 -16 -6 0 -6 5 -8 10 -5 6 4 18
-11 26 -31 12 -29 13 -43 5 -56 -16 -26 9 -24 32 2 15 18 15 20 1 20 -11 0
-15 6 -11 20 3 11 2 18 -3 15 -4 -3 -10 2 -13 10 -4 10 -1 12 11 8 12 -5 10 1
-7 20 -14 15 -21 27 -17 27 5 0 3 7 -4 15 -7 9 -19 14 -26 11 -17 -6 -39 20
-24 29 5 3 10 1 10 -4 0 -6 5 -11 12 -11 7 0 5 7 -6 18 -14 12 -20 14 -23 4
-3 -6 -9 -9 -14 -6 -6 3 -5 12 3 22 11 13 11 14 -1 7 -11 -6 -13 -4 -8 8 5 15
-4 22 -17 15 -8 -5 -47 52 -42 60 7 11 -23 54 -33 47 -5 -2 -48 48 -97 113
-48 64 -92 123 -97 130 -5 6 -7 12 -4 12 3 0 44 -52 92 -115 49 -64 93 -119
98 -122 12 -8 -13 29 -93 137 -31 41 -70 94 -87 118 l-30 42 -19 -27z m-210
-34 c-3 -5 -17 -9 -32 -9 -24 0 -25 1 -7 14 20 14 49 11 39 -5z m200 -26 c-10
-16 -61 -81 -113 -147 -53 -65 -102 -127 -110 -137 -7 -11 -21 -19 -29 -19
-11 0 -6 11 17 34 27 28 30 34 14 30 -12 -3 -24 0 -28 7 -5 8 -4 10 3 5 7 -4
12 -1 12 8 0 9 -6 16 -12 16 -9 0 -8 4 2 10 11 7 12 12 3 18 -14 9 -12 44 2
54 6 5 4 8 -5 9 -10 0 -8 3 5 9 20 9 20 9 0 10 -20 1 -20 1 0 10 14 6 15 9 5
9 -10 1 -16 10 -16 26 0 20 5 25 26 25 24 0 26 -3 26 -47 0 -27 -5 -51 -10
-55 -7 -5 -8 -8 -1 -8 19 0 16 -48 -3 -53 -9 -3 -3 -5 14 -6 35 -1 51 14 143
137 59 79 93 112 55 55z m-188 -5 c-9 -5 -33 -5 -53 -1 l-38 8 45 5 c51 6 70
2 46 -12z m230 -2 c19 -20 18 -23 -11 -23 -28 0 -27 -1 -19 21 8 20 12 20 30
2z m14 -104 c0 -32 5 -63 11 -69 6 -6 9 -23 6 -39 -4 -29 -4 -28 -6 4 -1 33
-6 35 -53 32 -28 -2 -28 -1 -28 64 l0 66 35 0 35 0 0 -58z m-86 -57 c5 -51 4
-76 -2 -70 -6 6 -12 19 -15 30 -3 13 -6 8 -7 -15 l-2 -35 -8 30 -8 30 -2 -30
c-3 -28 -3 -27 -10 10 l-7 40 -2 -37 c-1 -34 -6 -40 -27 -37 -3 0 -16 -7 -30
-15 -19 -13 -24 -14 -24 -3 0 22 37 60 43 45 3 -7 6 1 7 17 1 26 3 27 10 10 7
-16 9 -14 9 15 1 26 4 31 11 20 8 -12 10 -11 10 8 0 12 4 22 8 22 5 0 15 11
22 25 7 14 14 24 15 22 1 -1 5 -38 9 -82z m45 -52 c0 -16 -3 -22 -6 -15 -2 6
-9 10 -14 6 -5 -3 -9 4 -9 15 0 12 7 21 15 21 10 0 15 -9 14 -27z m18 -10 c-3
-10 -5 -4 -5 12 0 17 2 24 5 18 2 -7 2 -21 0 -30z m20 0 c-3 -10 -5 -4 -5 12
0 17 2 24 5 18 2 -7 2 -21 0 -30z m214 -25 c11 -21 11 -22 -4 -9 -10 7 -17 17
-17 22 0 15 9 10 21 -13z m-531 -108 c0 -5 -9 -10 -21 -10 -11 0 -17 5 -14 10
3 6 13 10 21 10 8 0 14 -4 14 -10z m-35 -30 c3 -5 -3 -10 -14 -10 -12 0 -21 5
-21 10 0 6 6 10 14 10 8 0 18 -4 21 -10z m-40 -60 c3 -5 -3 -10 -15 -10 -12 0
-18 5 -15 10 3 6 10 10 15 10 5 0 12 -4 15 -10z m453 -24 c15 -8 36 -24 47
-36 16 -18 17 -23 5 -30 -8 -6 -21 -10 -27 -10 -7 0 -13 -5 -13 -11 0 -5 -5
-7 -12 -3 -7 5 -8 3 -4 -5 5 -8 0 -14 -13 -18 -18 -5 -19 -8 -9 -21 11 -13 10
-15 -4 -9 -12 4 -15 2 -11 -9 3 -9 -1 -14 -12 -14 -14 0 -15 -3 -5 -15 10 -12
9 -15 -6 -15 -16 0 -17 -2 -4 -10 9 -6 11 -13 5 -17 -13 -11 -15 -43 -3 -43 6
0 5 -6 -2 -15 -9 -11 -9 -15 -1 -15 7 0 10 -4 7 -8 -7 -11 32 -93 56 -119 l21
-23 -34 0 c-46 0 -109 21 -141 45 -88 70 -106 286 -29 359 57 55 132 71 189
42z m-458 -17 c0 -11 -27 -12 -34 0 -3 4 -3 11 0 14 8 8 34 -3 34 -14z m-10
-31 c0 -6 -7 -7 -16 -4 -9 3 -18 6 -20 6 -3 0 -3 4 1 10 7 11 35 2 35 -12z
m570 12 c0 -5 -5 -10 -11 -10 -5 0 -7 5 -4 10 3 6 8 10 11 10 2 0 4 -4 4 -10z
m-594 -62 c7 -11 6 -89 0 -96 -6 -6 -36 11 -31 17 2 4 5 26 6 49 3 42 11 52
25 30z m624 -42 c0 -24 3 -51 6 -60 14 -37 -13 -12 -39 36 -30 53 -26 67 16
68 14 0 17 -9 17 -44z m86 24 c-1 -8 -12 -31 -24 -50 -27 -43 -27 -47 -3 -60
11 -5 23 -19 26 -30 4 -14 15 -20 36 -20 22 0 29 -5 29 -19 0 -11 -5 -23 -10
-26 -8 -5 -7 -12 2 -23 12 -15 11 -16 -4 -3 -10 7 -16 17 -13 21 7 11 -20 31
-43 33 -15 1 -20 8 -19 25 1 14 -4 27 -10 29 -19 7 -29 -27 -12 -38 8 -5 9 -9
4 -9 -6 0 -15 3 -21 8 -5 4 -1 -1 9 -10 14 -13 15 -18 5 -18 -22 0 -38 22 -38
53 0 24 3 27 20 22 20 -6 28 9 10 20 -5 3 -10 30 -10 60 l0 54 33 -2 c23 -1
34 -7 33 -17z m-136 -46 c31 -54 21 -69 -30 -43 -45 24 -46 26 -24 57 21 30
29 28 54 -14z m180 1 l23 -24 -32 -18 c-17 -10 -31 -21 -31 -25 0 -12 14 -9
36 7 28 21 34 18 34 -15 0 -26 -4 -30 -26 -30 -16 0 -37 11 -53 29 l-27 29 20
36 c12 20 24 36 27 36 3 0 16 -11 29 -25z m-265 -25 c-4 -11 -3 -20 2 -19 14
3 83 -31 83 -41 0 -12 -10 -17 -51 -25 l-37 -7 -4 44 c-5 41 -1 68 9 68 2 0 1
-9 -2 -20z m-490 -30 c-3 -5 1 -11 7 -14 9 -3 7 -9 -7 -17 -19 -12 -19 -12 0
-20 15 -6 11 -8 -17 -8 -21 -1 -38 4 -38 9 0 6 -12 10 -27 11 -16 0 -37 4 -48
9 -17 7 -16 9 10 10 l30 2 -30 8 c-36 8 -19 18 40 22 50 4 86 -2 80 -12z m234
-62 c1 -10 -2 -18 -6 -18 -5 0 -9 19 -10 43 -1 34 0 37 7 17 4 -14 8 -33 9
-42z m-316 5 c-13 -2 -33 -2 -45 0 -13 2 -3 4 22 4 25 0 35 -2 23 -4z m97 -23
c0 -5 -7 -10 -15 -10 -8 0 -15 5 -15 10 0 6 7 10 15 10 8 0 15 -4 15 -10z
m713 -26 c-1 -5 4 -15 9 -22 8 -9 8 -16 0 -24 -8 -8 -19 -4 -41 14 -21 19 -27
28 -19 36 13 13 54 9 51 -4z m-463 -22 c0 -5 -7 -9 -15 -9 -8 0 -12 4 -9 9 3
4 9 8 15 8 5 0 9 -4 9 -8z"/>
<path d="M936 1529 c4 -8 7 -30 5 -51 -1 -22 2 -38 8 -38 6 0 12 21 13 48 l1
47 7 -50 8 -50 -2 50 c-1 45 -4 50 -25 53 -17 3 -21 0 -15 -9z"/>
<path d="M773 1495 c0 -22 2 -30 4 -17 2 12 2 30 0 40 -3 9 -5 -1 -4 -23z"/>
<path d="M894 1329 c-29 -3 -75 -19 -103 -34 -52 -29 -141 -114 -141 -136 0
-14 69 61 70 75 0 5 8 2 17 -5 9 -8 14 -9 10 -3 -4 7 0 14 8 18 8 3 19 -3 24
-12 6 -9 11 -12 11 -5 0 6 -4 15 -10 18 -5 3 -10 13 -10 21 0 11 4 12 19 4 24
-12 42 -13 22 -1 -28 18 34 44 109 46 39 1 73 5 77 9 3 3 2 7 -3 7 -32 5 -55
4 -100 -2z"/>
<path d="M985 1300 c-3 -5 -2 -10 4 -10 5 0 13 5 16 10 3 6 2 10 -4 10 -5 0
-13 -4 -16 -10z"/>
<path d="M851 1289 c-13 -5 -22 -12 -19 -14 3 -3 20 1 39 9 37 17 19 21 -20 5z"/>
<path d="M1033 1293 c9 -2 23 -2 30 0 6 3 -1 5 -18 5 -16 0 -22 -2 -12 -5z"/>
<path d="M930 1216 c0 -2 7 -7 16 -10 8 -3 12 -2 9 4 -6 10 -25 14 -25 6z"/>
<path d="M970 1209 c0 -5 14 -9 32 -9 36 0 31 12 -7 16 -14 1 -25 -2 -25 -7z"/>
<path d="M898 1203 c7 -3 16 -2 19 1 4 3 -2 6 -13 5 -11 0 -14 -3 -6 -6z"/>
<path d="M695 1170 c3 -5 13 -10 21 -10 8 0 14 5 14 10 0 6 -9 10 -21 10 -11
0 -17 -4 -14 -10z"/>
<path d="M630 1131 c0 -4 11 -8 25 -9 14 -1 25 2 25 6 0 4 -11 8 -25 8 -14 1
-25 -1 -25 -5z"/>
<path d="M615 1099 c-4 -6 -5 -12 -2 -15 2 -3 7 2 10 11 7 17 1 20 -8 4z"/>
<path d="M666 1085 c-9 -26 -7 -32 5 -12 6 10 9 21 6 23 -2 3 -7 -2 -11 -11z"/>
<path d="M633 1058 c-13 -17 -22 -77 -12 -84 9 -5 23 52 15 65 -4 5 0 11 6 14
7 2 10 7 7 11 -3 4 -11 1 -16 -6z"/>
<path d="M592 1020 c0 -14 2 -19 5 -12 2 6 2 18 0 25 -3 6 -5 1 -5 -13z"/>
<path d="M1399 1033 c0 -4 -2 -22 -5 -40 -3 -25 -1 -31 11 -27 17 7 21 59 5
69 -5 3 -10 3 -11 -2z"/>
<path d="M601 934 c0 -11 3 -14 6 -6 3 7 2 16 -1 19 -3 4 -6 -2 -5 -13z"/>
<path d="M646 905 c4 -27 7 -58 6 -67 0 -10 3 -18 8 -18 4 0 11 -11 14 -24 3
-13 21 -46 40 -74 19 -27 32 -53 28 -57 -4 -4 -2 -5 3 -4 6 2 28 -9 50 -23 48
-33 117 -58 156 -58 16 0 29 -5 29 -12 0 -6 6 -3 14 7 8 12 19 16 31 11 12 -4
27 1 44 16 l25 23 -17 -26 c-15 -26 -15 -27 3 -22 11 3 25 12 32 21 10 12 10
14 1 8 -16 -9 -17 6 -1 22 17 17 -10 15 -42 -3 -15 -9 -53 -14 -95 -15 -89 0
-153 28 -216 97 -59 63 -67 79 -76 149 -5 47 -8 54 -14 34 l-7 -25 -2 25 c-1
14 -6 34 -11 45 -6 14 -7 4 -3 -30z"/>
<path d="M611 895 c1 -11 4 -31 8 -45 7 -24 7 -24 13 -4 3 12 -1 32 -8 45 -12
21 -13 22 -13 4z"/>
<path d="M628 814 c-4 -6 -1 -20 7 -30 12 -16 16 -17 27 -5 11 12 10 13 -4 8
-12 -4 -18 0 -20 16 -2 13 -6 18 -10 11z"/>
<path d="M666 734 c-7 -19 22 -61 49 -68 20 -5 20 -5 0 10 -11 9 -19 20 -17
25 1 5 -4 9 -12 9 -9 0 -12 7 -9 20 6 24 -2 27 -11 4z"/>
<path d="M740 638 c0 -18 37 -41 45 -28 3 6 2 10 -4 10 -5 0 -17 7 -25 16 -12
12 -16 12 -16 2z"/>
<path d="M847 566 c26 -15 41 -16 46 -3 3 8 -8 12 -30 13 -29 0 -31 -1 -16
-10z"/>
<path d="M905 559 c-4 -6 -5 -12 -2 -15 2 -3 7 2 10 11 7 17 1 20 -8 4z"/>
<path d="M936 559 c2 -4 -2 -9 -8 -11 -7 -3 3 -5 22 -5 19 0 29 2 22 5 -6 2
-10 8 -7 12 3 5 -3 8 -14 7 -11 0 -18 -4 -15 -8z"/>
<path d="M1080 560 c0 -5 4 -10 9 -10 6 0 13 5 16 10 3 6 -1 10 -9 10 -9 0
-16 -4 -16 -10z"/>
<path d="M1040 550 c0 -5 4 -10 9 -10 6 0 13 5 16 10 3 6 -1 10 -9 10 -9 0
-16 -4 -16 -10z"/>
<path d="M1150 525 c-7 -8 -8 -15 -2 -15 5 0 15 7 22 15 7 8 8 15 2 15 -5 0
-15 -7 -22 -15z"/>
<path d="M921 490 c0 -8 4 -22 9 -30 12 -18 12 -2 0 25 -6 13 -9 15 -9 5z"/>
<path d="M829 443 c23 -29 48 -56 54 -60 17 -10 -46 68 -74 92 -13 11 -4 -4
20 -32z"/>
<path d="M1020 460 c-6 -11 -8 -20 -6 -20 3 0 10 9 16 20 6 11 8 20 6 20 -3 0
-10 -9 -16 -20z"/>
<path d="M1073 468 c-15 -20 -25 -38 -20 -38 3 0 12 11 21 25 17 26 16 35 -1
13z"/>
<path d="M991 412 c-17 -31 -13 -40 5 -14 9 13 14 26 11 29 -3 2 -10 -4 -16
-15z"/>
<path d="M1006 361 c-15 -28 -24 -51 -22 -51 7 0 57 93 52 98 -3 2 -16 -19
-30 -47z"/>
<path d="M957 338 c1 -27 4 -53 8 -56 3 -3 5 7 4 24 -1 16 1 36 5 45 4 9 1 21
-6 27 -11 9 -13 1 -11 -40z"/>
</g>
</svg>
