<?xml version="1.0" encoding="UTF-8"?>
<svg version="1.1" xmlns="http://www.w3.org/2000/svg" width="180" height="180">
<path d="M0 0 C0 0.66 0 1.32 0 2 C1.32 2.66 2.64 3.32 4 4 C4 8.62 4 13.24 4 18 C4.33 17.34 4.66 16.68 5 16 C5.66 16 6.32 16 7 16 C7.23847656 15.47921875 7.47695312 14.9584375 7.72265625 14.421875 C9.41311883 11.21671659 11.4023916 8.24183949 13.4375 5.25 C14.03014648 4.34701172 14.03014648 4.34701172 14.63476562 3.42578125 C15.67836421 1.89424389 16.83289256 0.43964055 18 -1 C18.99 -1 19.98 -1 21 -1 C22.26757812 0.32250977 22.26757812 0.32250977 23.53125 2.19140625 C24.0070752 2.88194092 24.48290039 3.57247559 24.97314453 4.28393555 C25.47700684 5.03586182 25.98086914 5.78778809 26.5 6.5625 C27.5687374 8.12347541 28.63908528 9.68334925 29.7109375 11.2421875 C30.25459961 12.03592773 30.79826172 12.82966797 31.35839844 13.64746094 C32.91960229 15.88478401 34.52478971 18.07724137 36.1640625 20.2578125 C36.66228516 20.92095459 37.16050781 21.58409668 37.67382812 22.26733398 C38.61743493 23.5158985 39.56638364 24.76044991 40.52148438 26.00024414 C43.19231283 29.55816919 44.69976333 32.76797967 46 37 C47.86644906 38.18330183 47.86644906 38.18330183 50 39 C52.25 41 52.25 41 54 43 C54 43.66 54 44.32 54 45 C54.66 45 55.32 45 56 45 C61.26628195 50.738897 62.08704198 57.55740748 63 65 C63.29777344 66.45792969 63.29777344 66.45792969 63.6015625 67.9453125 C64.05689762 71.43621509 63.70799635 74.28396689 63.125 77.75 C62.85042969 79.44382813 62.85042969 79.44382813 62.5703125 81.171875 C62 84 62 84 61 86 C60.34 86 59.68 86 59 86 C58.85498047 87.08667969 58.85498047 87.08667969 58.70703125 88.1953125 C57.8938548 91.42106217 56.6838663 93.22144479 54.6875 95.875 C53.96820313 96.83277344 53.24890625 97.79054688 52.5078125 98.77734375 C49.735697 102.36498476 46.90121868 105.90248334 44.0625 109.4375 C42.03990512 111.9569283 40.01854676 114.4773268 38 117 C37.56445801 117.54333984 37.12891602 118.08667969 36.68017578 118.64648438 C31.61369523 125.01303542 27.59378595 131.24909658 24.2890625 138.69921875 C23 141 23 141 20 142 C-2 115.68267223 -2 115.68267223 -2 113 C-2.66 113 -3.32 113 -4 113 C-5.65372367 111.09836894 -7.17884625 109.19997498 -8.6875 107.1875 C-9.13230713 106.6001709 -9.57711426 106.0128418 -10.03540039 105.40771484 C-20.32010468 91.67130743 -20.32010468 91.67130743 -22.25 84.9375 C-23.69446479 81.7836968 -23.69446479 81.7836968 -26.62109375 81.1328125 C-29.41814277 80.61259701 -32.16584932 80.23577824 -35 80 C-35 76.7 -35 73.4 -35 70 C-31.7 70 -28.4 70 -25 70 C-25.04125 68.845 -25.0825 67.69 -25.125 66.5 C-25.09068807 56.72109982 -21.43487691 46.35414504 -15 39 C-15 38.34 -15 37.68 -15 37 C-13.68 36.34 -12.36 35.68 -11 35 C-10.97096108 30.91668161 -10.95318811 26.8333898 -10.9375 22.75 C-10.92912109 21.59113281 -10.92074219 20.43226562 -10.91210938 19.23828125 C-10.90888672 18.12324219 -10.90566406 17.00820313 -10.90234375 15.859375 C-10.89710693 14.83295898 -10.89187012 13.80654297 -10.88647461 12.74902344 C-10.98699301 10.31496492 -11.39145856 8.33830186 -12 6 C-11.11267334 2.74646891 -10.01756081 2.01107095 -7.125 0.1875 C-4.02316031 -0.99119908 -2.9798555 -1.26070809 0 0 Z M9 58 C5.21922441 63.90746187 5.22211836 70.13016886 6 77 C7.21076174 81.93881344 8.97066646 86.42892972 12.625 90.0625 C17.05644059 92.60647515 20.9588319 92.89040939 26 93 C25.34 91.68 24.68 90.36 24 89 C23.34 89 22.68 89 22 89 C20.43380235 83.08480709 19.16200217 77.13710174 20 71 C20.66 70.01 21.32 69.02 22 68 C22 67.01 22 66.02 22 65 C22.66 65 23.32 65 24 65 C24.226875 64.401875 24.45375 63.80375 24.6875 63.1875 C26.33307014 60.4448831 28.27035797 59.58031907 31 58 C31 57.34 31 56.68 31 56 C30.34 56 29.68 56 29 56 C29 55.34 29 54.68 29 54 C25.90960315 51.93973543 22.85450732 51.45501381 19.16015625 51.55859375 C14.91717918 52.42560353 11.95905587 54.94571015 9 58 Z M35 63 C35.99 64.98 36.98 66.96 38 69 C38.33 69 38.66 69 39 69 C39 67.02 39 65.04 39 63 C37.68 63 36.36 63 35 63 Z M43 63 C43 64.65 43 66.3 43 68 C43.66 68 44.32 68 45 68 C45.66 66.68 46.32 65.36 47 64 C45.68 63.67 44.36 63.34 43 63 Z M31 66 C31 66.66 31 67.32 31 68 C30.01 68.495 30.01 68.495 29 69 C32.465 70.485 32.465 70.485 36 72 C35.21869929 69.50447516 35.21869929 69.50447516 34 67 C33.01 66.67 32.02 66.34 31 66 Z M28 73 C27.67 74.32 27.34 75.64 27 77 C30.465 76.505 30.465 76.505 34 76 C31.32752366 73.65712582 31.32752366 73.65712582 28 73 Z M53 73 C52.01 73.99 51.02 74.98 50 76 C51.32 76 52.64 76 54 76 C53.67 75.01 53.34 74.02 53 73 Z M28 80 C28.33 80.99 28.66 81.98 29 83 C30.65 82.34 32.3 81.68 34 81 C34 80.67 34 80.34 34 80 C32.02 80 30.04 80 28 80 Z M34.4375 83.375 C32.77914204 84.88807063 32.77914204 84.88807063 33 87 C33.99 86.67 34.98 86.34 36 86 C36.73323796 83.98491642 36.73323796 83.98491642 37 82 C35.77822672 81.88989535 35.77822672 81.88989535 34.4375 83.375 Z M45 82 C45.66 82.66 46.32 83.32 47 84 C47 83.34 47 82.68 47 82 C46.34 82 45.68 82 45 82 Z M48 85 C48 85.66 48 86.32 48 87 C48.66 87 49.32 87 50 87 C50 86.34 50 85.68 50 85 C49.34 85 48.68 85 48 85 Z M39 86 C38.67 86.99 38.34 87.98 38 89 C38.66 89 39.32 89 40 89 C39.67 88.01 39.34 87.02 39 86 Z " fill="#334450" transform="translate(71,22)"/>
<path d="M0 0 C1.4158649 2.91038896 2.29922267 5.846502 3 9 C2.34 9 1.68 9 1 9 C1.495 17.415 1.495 17.415 2 26 C2.33 26 2.66 26 3 26 C4.95517748 23.66998021 6.86256532 21.32150975 8.75 18.9375 C9.2759375 18.28072266 9.801875 17.62394531 10.34375 16.94726562 C13.70544597 12.72434309 16.89816401 8.41724421 20 4 C25.17226615 8.6873662 28.98925493 14.31728181 33 20 C32.67 20.66 32.34 21.32 32 22 C31.505 20.515 31.505 20.515 31 19 C27.48809191 17.77030122 27.48809191 17.77030122 24 17 C23.505 15.02 23.505 15.02 23 13 C20.69 13 18.38 13 16 13 C16.020625 14.093125 16.04125 15.18625 16.0625 16.3125 C16 20 16 20 15 23 C14.34 23 13.68 23 13 23 C13 25.97 13 28.94 13 32 C12.2265625 32.27972656 11.453125 32.55945312 10.65625 32.84765625 C-1.27345064 37.43940984 -6.73818851 42.5707397 -12.65234375 53.9140625 C-16.49105412 62.70415292 -16.39685189 74.06620579 -13.25 83.0625 C-11.57810864 87.07503926 -9.52768065 90.47930195 -7 94 C-7 94.66 -7 95.32 -7 96 C-6.34 96 -5.68 96 -5 96 C-3.31066078 97.6436814 -1.64740076 99.3142876 0 101 C6.960916 107.76203269 15.63622122 108.33508785 24.921875 108.30078125 C28.19528724 107.98091736 30.92931603 107.15380491 34 106 C32.515 105.505 32.515 105.505 31 105 C29.73973202 102.47946405 30.08125555 101.1457902 30.4375 98.375 C30.53933594 97.55773437 30.64117187 96.74046875 30.74609375 95.8984375 C30.87177734 94.95871094 30.87177734 94.95871094 31 94 C29.7934375 93.5978125 29.7934375 93.5978125 28.5625 93.1875 C27.716875 92.795625 26.87125 92.40375 26 92 C25.67 91.01 25.34 90.02 25 89 C24.34 89 23.68 89 23 89 C18.2391572 77.01287796 18.2391572 77.01287796 20 71 C22.90198633 66.73770758 26.26756246 61.92940052 31.296875 60.21875 C31.85890625 60.1465625 32.4209375 60.074375 33 60 C33 60.66 33 61.32 33 62 C32.01 62.66 31.02 63.32 30 64 C27.60823906 68.69153106 26.53940589 72.71382228 26 78 C28.97 78 31.94 78 35 78 C35 77.01 35 76.02 35 75 C33.824375 74.5359375 33.824375 74.5359375 32.625 74.0625 C30 73 30 73 28 72 C28 71.34 28 70.68 28 70 C30.97 70.66 33.94 71.32 37 72 C37 71.34 37 70.68 37 70 C38.485 70.495 38.485 70.495 40 71 C40 71.66 40 72.32 40 73 C41.485 73.495 41.485 73.495 43 74 C43.33 74.33 43.66 74.66 44 75 C44.99 75 45.98 75 47 75 C47.433125 76.093125 47.86625 77.18625 48.3125 78.3125 C49.49495641 81.09408793 50.60800043 83.06361939 53 85 C52.505 86.485 52.505 86.485 52 88 C50.02 88.33 48.04 88.66 46 89 C45.67 88.34 45.34 87.68 45 87 C44.505 88.98 44.505 88.98 44 91 C42.68 91 41.36 91 40 91 C40 90.01 40 89.02 40 88 C39.0409375 88.495 39.0409375 88.495 38.0625 89 C36 90 36 90 35 90 C35 90.66 35 91.32 35 92 C39.07152589 94.03576294 43.89530887 93.25992733 48.1875 92.25 C53.90570893 89.70857381 56.52900628 86.72230125 59 81 C59.66 81 60.32 81 61 81 C61.33 80.34 61.66 79.68 62 79 C63.125 83.75 63.125 83.75 62 86 C61.34 86 60.68 86 60 86 C59.85498047 87.08667969 59.85498047 87.08667969 59.70703125 88.1953125 C58.8938548 91.42106217 57.6838663 93.22144479 55.6875 95.875 C54.96820313 96.83277344 54.24890625 97.79054688 53.5078125 98.77734375 C50.735697 102.36498476 47.90121868 105.90248334 45.0625 109.4375 C43.03990512 111.9569283 41.01854676 114.4773268 39 117 C38.56445801 117.54333984 38.12891602 118.08667969 37.68017578 118.64648438 C32.61369523 125.01303542 28.59378595 131.24909658 25.2890625 138.69921875 C24 141 24 141 21 142 C-1 115.68267223 -1 115.68267223 -1 113 C-1.66 113 -2.32 113 -3 113 C-4.65372367 111.09836894 -6.17884625 109.19997498 -7.6875 107.1875 C-8.13230713 106.6001709 -8.57711426 106.0128418 -9.03540039 105.40771484 C-19.32010468 91.67130743 -19.32010468 91.67130743 -21.25 84.9375 C-22.69446479 81.7836968 -22.69446479 81.7836968 -25.62109375 81.1328125 C-28.41814277 80.61259701 -31.16584932 80.23577824 -34 80 C-34 76.7 -34 73.4 -34 70 C-30.7 70 -27.4 70 -24 70 C-24.04125 68.845 -24.0825 67.69 -24.125 66.5 C-24.09068807 56.72109982 -20.43487691 46.35414504 -14 39 C-14 38.34 -14 37.68 -14 37 C-12.68 36.34 -11.36 35.68 -10 35 C-9.97096108 30.91668161 -9.95318811 26.8333898 -9.9375 22.75 C-9.92912109 21.59113281 -9.92074219 20.43226562 -9.91210938 19.23828125 C-9.90888672 18.12324219 -9.90566406 17.00820313 -9.90234375 15.859375 C-9.89710693 14.83295898 -9.89187012 13.80654297 -9.88647461 12.74902344 C-9.98699301 10.31496492 -10.39145856 8.33830186 -11 6 C-10.10283149 2.71038213 -9.00936269 2.00577698 -6.0625 0.1875 C-3 -1 -3 -1 0 0 Z M29 80 C29.33 80.99 29.66 81.98 30 83 C31.65 82.34 33.3 81.68 35 81 C35 80.67 35 80.34 35 80 C33.02 80 31.04 80 29 80 Z M35.4375 83.375 C33.77914204 84.88807063 33.77914204 84.88807063 34 87 C34.99 86.67 35.98 86.34 37 86 C37.73323796 83.98491642 37.73323796 83.98491642 38 82 C36.77822672 81.88989535 36.77822672 81.88989535 35.4375 83.375 Z M46 82 C46.66 82.66 47.32 83.32 48 84 C48 83.34 48 82.68 48 82 C47.34 82 46.68 82 46 82 Z M49 85 C49 85.66 49 86.32 49 87 C49.66 87 50.32 87 51 87 C51 86.34 51 85.68 51 85 C50.34 85 49.68 85 49 85 Z " fill="#222F3D" transform="translate(70,22)"/>
<path d="M0 0 C0.99 0 1.98 0 3 0 C4.26757812 1.32250977 4.26757812 1.32250977 5.53125 3.19140625 C6.0070752 3.88194092 6.48290039 4.57247559 6.97314453 5.28393555 C7.47700684 6.03586182 7.98086914 6.78778809 8.5 7.5625 C9.5687374 9.12347541 10.63908528 10.68334925 11.7109375 12.2421875 C12.25459961 13.03592773 12.79826172 13.82966797 13.35839844 14.64746094 C14.91960229 16.88478401 16.52478971 19.07724137 18.1640625 21.2578125 C18.66228516 21.92095459 19.16050781 22.58409668 19.67382812 23.26733398 C20.61743493 24.5158985 21.56638364 25.76044991 22.52148438 27.00024414 C25.19231283 30.55816919 26.69976333 33.76797967 28 38 C29.86644906 39.18330183 29.86644906 39.18330183 32 40 C34.25 42 34.25 42 36 44 C36 44.66 36 45.32 36 46 C36.66 46 37.32 46 38 46 C40.69226176 48.98610743 42.9221755 52.2279961 43.1015625 56.3125 C42.8125 58.5 42.8125 58.5 42 62 C40 62 38 62 36 62 C35.34 61.34 34.68 60.68 34 60 C33.34 60 32.68 60 32 60 C32 59.34 32 58.68 32 58 C31.26394531 57.98582031 30.52789062 57.97164062 29.76953125 57.95703125 C21.6919667 57.56222294 21.6919667 57.56222294 18 54.5625 C17.34 53.716875 16.68 52.87125 16 52 C10.63816227 48.42544151 4.30353063 48.18811255 -2 49 C-8.89427155 51.37699491 -13.78524425 54.51390715 -17.0703125 61.16796875 C-19.30834913 67.98551729 -19.40105168 78.16027742 -16.3125 84.6875 C-12.97557533 90.00316245 -8.93463883 93.84194952 -3 96 C0.99351449 96.52667349 4.97739927 96.81123718 9 97 C9 98.32 9 99.64 9 101 C4.60198253 103.19900874 -0.89519662 102.4741414 -5.56640625 101.421875 C-12.53208845 99.02367456 -17.57370409 94.85805759 -22 89 C-23.4361676 86.05232485 -24.31526341 83.19747533 -25 80 C-25.27070312 79.0409375 -25.27070312 79.0409375 -25.546875 78.0625 C-27.15537483 70.74105248 -26.595027 62.6194148 -23 56 C-17.99650533 48.9971793 -13.11707905 44.83453554 -5 42 C-7.97 42.66 -10.94 43.32 -14 44 C-14.99 42.68 -15.98 41.36 -17 40 C-15.9275 39.855625 -14.855 39.71125 -13.75 39.5625 C-9.81334935 39.02103843 -9.81334935 39.02103843 -6 38 C-5.67 37.34 -5.34 36.68 -5 36 C-3.68 36 -2.36 36 -1 36 C-1 35.34 -1 34.68 -1 34 C-2.89825285 34.42687983 -4.79353183 34.86699482 -6.6875 35.3125 C-7.74324219 35.55613281 -8.79898438 35.79976562 -9.88671875 36.05078125 C-13.05071876 36.87728087 -13.05071876 36.87728087 -15.76953125 38.66796875 C-16.50558594 39.10753906 -17.24164063 39.54710937 -18 40 C-18.66 39.67 -19.32 39.34 -20 39 C-15.41078616 35.84345952 -11.70629354 33.42797202 -6 33 C-6 30.03 -6 27.06 -6 24 C-5.34 24 -4.68 24 -4 24 C-3.67 20.7 -3.34 17.4 -3 14 C-0.69 14 1.62 14 4 14 C4.33 14.99 4.66 15.98 5 17 C8.50294871 18.71567661 8.50294871 18.71567661 12 20 C11.61328125 19.49210937 11.2265625 18.98421875 10.828125 18.4609375 C7.74572807 14.38668017 4.78428845 10.28352069 2 6 C-1.34216186 9.16504268 -4.11843978 12.64255784 -6.875 16.3125 C-10.44274567 21.01172319 -14.09085232 25.57649079 -18 30 C-18 23.33333333 -18 16.66666667 -18 10 C-17.34 10 -16.68 10 -16 10 C-16.66 8.88625 -17.32 7.7725 -18 6.625 C-20 3.25 -20 3.25 -20 1 C-19.34 1 -18.68 1 -18 1 C-18 1.66 -18 2.32 -18 3 C-16.68 3.66 -15.36 4.32 -14 5 C-14 9.62 -14 14.24 -14 19 C-13.67 18.34 -13.34 17.68 -13 17 C-12.34 17 -11.68 17 -11 17 C-10.76152344 16.47921875 -10.52304688 15.9584375 -10.27734375 15.421875 C-8.58688117 12.21671659 -6.5976084 9.24183949 -4.5625 6.25 C-4.16740234 5.64800781 -3.77230469 5.04601562 -3.36523438 4.42578125 C-2.32163579 2.89424389 -1.16710744 1.43964055 0 0 Z " fill="#682723" transform="translate(89,21)"/>
<path d="M0 0 C1.4158649 2.91038896 2.29922267 5.846502 3 9 C2.34 9 1.68 9 1 9 C1.495 17.415 1.495 17.415 2 26 C2.33 26 2.66 26 3 26 C4.95517748 23.66998021 6.86256532 21.32150975 8.75 18.9375 C9.2759375 18.28072266 9.801875 17.62394531 10.34375 16.94726562 C13.70544597 12.72434309 16.89816401 8.41724421 20 4 C25.17226615 8.6873662 28.98925493 14.31728181 33 20 C32.67 20.66 32.34 21.32 32 22 C31.505 20.515 31.505 20.515 31 19 C27.48809191 17.77030122 27.48809191 17.77030122 24 17 C23.505 15.02 23.505 15.02 23 13 C20.69 13 18.38 13 16 13 C16.020625 14.093125 16.04125 15.18625 16.0625 16.3125 C16 20 16 20 15 23 C14.34 23 13.68 23 13 23 C13 25.97 13 28.94 13 32 C12.2265625 32.27972656 11.453125 32.55945312 10.65625 32.84765625 C-1.27345064 37.43940984 -6.73818851 42.5707397 -12.65234375 53.9140625 C-16.49105412 62.70415292 -16.39685189 74.06620579 -13.25 83.0625 C-11.57810864 87.07503926 -9.52768065 90.47930195 -7 94 C-7 94.66 -7 95.32 -7 96 C-6.34 96 -5.68 96 -5 96 C-3.33333333 97.66666667 -1.66666667 99.33333333 0 101 C2.28317152 102.75264204 4.62526056 104.37027685 7 106 C3.28125 107.1171875 3.28125 107.1171875 0.75 106.0625 C0.1725 105.711875 -0.405 105.36125 -1 105 C-1.66 105.66 -2.32 106.32 -3 107 C-3.33 106.01 -3.66 105.02 -4 104 C-4.88300781 104.14566406 -5.76601562 104.29132813 -6.67578125 104.44140625 C-10 104 -10 104 -11.38427734 102.70654297 C-12.76225833 100.83691263 -13.98651739 98.92539789 -15.1875 96.9375 C-15.61224609 96.28072266 -16.03699219 95.62394531 -16.47460938 94.94726562 C-18.511946 91.73125214 -20.16440562 88.68093502 -21.4453125 85.09375 C-22.68579947 81.78608585 -22.68579947 81.78608585 -25.69921875 80.87890625 C-26.68535156 80.77449219 -27.67148437 80.67007813 -28.6875 80.5625 C-29.68136719 80.44003906 -30.67523438 80.31757812 -31.69921875 80.19140625 C-32.45847656 80.12824219 -33.21773437 80.06507812 -34 80 C-34 76.7 -34 73.4 -34 70 C-30.7 70 -27.4 70 -24 70 C-24.04125 68.845 -24.0825 67.69 -24.125 66.5 C-24.09068807 56.72109982 -20.43487691 46.35414504 -14 39 C-14 38.34 -14 37.68 -14 37 C-12.68 36.34 -11.36 35.68 -10 35 C-9.97096108 30.91668161 -9.95318811 26.8333898 -9.9375 22.75 C-9.92912109 21.59113281 -9.92074219 20.43226562 -9.91210938 19.23828125 C-9.90888672 18.12324219 -9.90566406 17.00820313 -9.90234375 15.859375 C-9.89710693 14.83295898 -9.89187012 13.80654297 -9.88647461 12.74902344 C-9.98699301 10.31496492 -10.39145856 8.33830186 -11 6 C-10.10283149 2.71038213 -9.00936269 2.00577698 -6.0625 0.1875 C-3 -1 -3 -1 0 0 Z " fill="#0E161F" transform="translate(70,22)"/>
<path d="M0 0 C3.98671063 1.36687222 6.88494633 3.15195093 10 6 C10 6.66 10 7.32 10 8 C11.98567708 7.96744792 13.97135417 7.93489583 15.95703125 7.90234375 C18 8 18 8 21 9 C21 9.66 21 10.32 21 11 C21.99 10.67 22.98 10.34 24 10 C24.99 10.99 25.98 11.98 27 13 C27.928125 12.2575 27.928125 12.2575 28.875 11.5 C31 10 31 10 33 10 C34.96760338 18.53637159 34.96760338 25.46362841 33 34 C31.68 33.67 30.36 33.34 29 33 C28.7215625 34.299375 28.7215625 34.299375 28.4375 35.625 C26.55411321 40.04686464 23.96114281 42.36212105 20 45 C17.5625 45.875 17.5625 45.875 15 46 C14.34644531 46.04898438 13.69289063 46.09796875 13.01953125 46.1484375 C7.59813539 46.40518849 7.59813539 46.40518849 5.0625 44.6875 C4 43 4 43 3 40 C5.31 40.33 7.62 40.66 10 41 C10 41.66 10 42.32 10 43 C11.32 43 12.64 43 14 43 C14 41.35 14 39.7 14 38 C14.66 38.33 15.32 38.66 16 39 C16 39.66 16 40.32 16 41 C17.98 40.34 19.96 39.68 22 39 C20.95975088 36.75946342 19.93953446 34.92558087 18.375 33 C17 31 17 31 17 27 C13.9254644 27.7763932 13.9254644 27.7763932 12 30 C12 28.68 12 27.36 12 26 C10.09316578 23.548356 9.02015057 23.00671686 6 22 C4.62804426 20.70644173 3.28817344 19.37701298 2 18 C2 18.99 2 19.98 2 21 C3.98 21.99 5.96 22.98 8 24 C6.375 24.6875 6.375 24.6875 4 25 C0.75 23.5625 0.75 23.5625 -2 22 C-2 22.66 -2 23.32 -2 24 C-1.34 24.33 -0.68 24.66 0 25 C-0.66 26.32 -1.32 27.64 -2 29 C1.465 28.505 1.465 28.505 5 28 C5 28.66 5 29.32 5 30 C2.03 30 -0.94 30 -4 30 C-4.48241483 24.21102202 -3.47981859 19.7716576 0 15 C0.99 14.67 1.98 14.34 3 14 C3 13.34 3 12.68 3 12 C-0.98381075 14.16264012 -3.88983545 16.71211176 -7 20 C-7 19.01 -7 18.02 -7 17 C-6.34 17 -5.68 17 -5 17 C-4.938125 16.401875 -4.87625 15.80375 -4.8125 15.1875 C-3.67717105 12.13084514 -1.78847225 11.53365974 1 10 C1.33 9.34 1.66 8.68 2 8 C1.34 8 0.68 8 0 8 C0 7.34 0 6.68 0 6 C-3.3 5.34 -6.6 4.68 -10 4 C-10 3.67 -10 3.34 -10 3 C-8.35 3 -6.7 3 -5 3 C-5 2.34 -5 1.68 -5 1 C-4.34 1 -3.68 1 -3 1 C-2.67 1.66 -2.34 2.32 -2 3 C-1.01 3 -0.02 3 1 3 C0.67 2.01 0.34 1.02 0 0 Z M6 15 C6.99 16.98 7.98 18.96 9 21 C9.33 21 9.66 21 10 21 C10 19.02 10 17.04 10 15 C8.68 15 7.36 15 6 15 Z M14 15 C14 16.65 14 18.3 14 20 C14.66 20 15.32 20 16 20 C16.66 18.68 17.32 17.36 18 16 C16.68 15.67 15.36 15.34 14 15 Z M24 25 C23.01 25.99 22.02 26.98 21 28 C22.32 28 23.64 28 25 28 C24.67 27.01 24.34 26.02 24 25 Z " fill="#4D403E" transform="translate(100,70)"/>
<path d="M0 0 C0.99 0 1.98 0 3 0 C3 0.66 3 1.32 3 2 C2.01 2.66 1.02 3.32 0 4 C-2.39176094 8.69153106 -3.46059411 12.71382228 -4 18 C-1.03 18 1.94 18 5 18 C5 17.01 5 16.02 5 15 C4.21625 14.690625 3.4325 14.38125 2.625 14.0625 C0 13 0 13 -2 12 C-2 11.34 -2 10.68 -2 10 C2.455 10.99 2.455 10.99 7 12 C7 11.34 7 10.68 7 10 C7.99 10.33 8.98 10.66 10 11 C10 11.66 10 12.32 10 13 C10.99 13.33 11.98 13.66 13 14 C13.33 14.33 13.66 14.66 14 15 C14.99 15 15.98 15 17 15 C17.433125 16.093125 17.86625 17.18625 18.3125 18.3125 C19.49495641 21.09408793 20.60800043 23.06361939 23 25 C22.505 26.485 22.505 26.485 22 28 C20.02 28.33 18.04 28.66 16 29 C15.67 28.34 15.34 27.68 15 27 C14.67 28.32 14.34 29.64 14 31 C12.68 31 11.36 31 10 31 C10 30.01 10 29.02 10 28 C9.360625 28.33 8.72125 28.66 8.0625 29 C6 30 6 30 5 30 C5 30.66 5 31.32 5 32 C9.07152589 34.03576294 13.89530887 33.25992733 18.1875 32.25 C23.90570893 29.70857381 26.52900628 26.72230125 29 21 C29.66 21 30.32 21 31 21 C31.33 20.34 31.66 19.68 32 19 C33.125 23.75 33.125 23.75 32 26 C31.34 26 30.68 26 30 26 C29.91363281 26.71027344 29.82726562 27.42054687 29.73828125 28.15234375 C28.84121577 31.61245345 27.32709372 33.70838519 25.1875 36.5625 C24.50042969 37.49191406 23.81335938 38.42132813 23.10546875 39.37890625 C21.18329829 41.77181234 19.29170263 43.95865144 17 46 C13.53859499 45.88834177 10.77450009 43.96245128 8 42 C6.81392323 40.52541807 5.62902459 39.04965668 4.46875 37.5546875 C2.19360358 35.14642081 -0.54675182 33.67462931 -3.42578125 32.078125 C-3.94527344 31.72234375 -4.46476562 31.3665625 -5 31 C-5 30.34 -5 29.68 -5 29 C-5.66 29 -6.32 29 -7 29 C-11.77799474 16.96969182 -11.77799474 16.96969182 -10 11 C-7.33789277 7.29825326 -4.29609951 4.14032921 -1 1 C-0.67 0.67 -0.34 0.34 0 0 Z M-1 20 C-0.67 20.99 -0.34 21.98 0 23 C1.65 22.34 3.3 21.68 5 21 C5 20.67 5 20.34 5 20 C3.02 20 1.04 20 -1 20 Z M5.4375 23.375 C3.77914204 24.88807063 3.77914204 24.88807063 4 27 C4.99 26.67 5.98 26.34 7 26 C7.73323796 23.98491642 7.73323796 23.98491642 8 22 C6.77822672 21.88989535 6.77822672 21.88989535 5.4375 23.375 Z M16 22 C16.66 22.66 17.32 23.32 18 24 C18 23.34 18 22.68 18 22 C17.34 22 16.68 22 16 22 Z M19 25 C19 25.66 19 26.32 19 27 C19.66 27 20.32 27 21 27 C21 26.34 21 25.68 21 25 C20.34 25 19.68 25 19 25 Z " fill="#0B0D0D" transform="translate(100,82)"/>
<path d="M0 0 C3.63571341 3.3188393 6.13932359 7.00064151 8.75 11.125 C9.16121094 11.75792969 9.57242188 12.39085937 9.99609375 13.04296875 C13 17.74343335 13 17.74343335 13 20 C13.5775 20.2475 14.155 20.495 14.75 20.75 C17.32939979 22.18299988 19.06121592 23.78424676 21 26 C21 26.66 21 27.32 21 28 C21.66 28 22.32 28 23 28 C25.69226176 30.98610743 27.9221755 34.2279961 28.1015625 38.3125 C27.8125 40.5 27.8125 40.5 27 44 C25 44 23 44 21 44 C20.34 43.34 19.68 42.68 19 42 C18.34 42 17.68 42 17 42 C17 41.34 17 40.68 17 40 C16.26394531 39.98582031 15.52789062 39.97164062 14.76953125 39.95703125 C6.6919667 39.56222294 6.6919667 39.56222294 3 36.5625 C2.34 35.716875 1.68 34.87125 1 34 C-2.5397007 31.64019954 -4.99106288 31.41399192 -9.1875 30.875 C-10.45980469 30.70742187 -11.73210937 30.53984375 -13.04296875 30.3671875 C-14.01878906 30.24601562 -14.99460937 30.12484375 -16 30 C-14 28 -14 28 -12.0546875 27.8046875 C-10.03645833 27.86979167 -8.01822917 27.93489583 -6 28 C-6 27.34 -6 26.68 -6 26 C-0.55106131 24.80123349 2.22169095 25.08639692 7 28 C5.39125 27.0409375 5.39125 27.0409375 3.75 26.0625 C1.19177818 24.59398727 -1.05340886 23.47145458 -4 23 C-4 22.34 -4 21.68 -4 21 C-4.99 20.67 -5.98 20.34 -7 20 C-6.67 19.67 -6.34 19.34 -6 19 C-7.98 18.34 -9.96 17.68 -12 17 C-12 16.34 -12 15.68 -12 15 C-5.56744599 14.87913782 0.61773055 15.17648136 7 16 C5.70833361 13.24162831 4.25957416 10.94852518 2.375 8.5625 C0.20837659 5.61436727 -0.5672041 3.74354708 0 0 Z " fill="#C1A677" transform="translate(104,39)"/>
<path d="M0 0 C-0.34933594 0.62648438 -0.69867188 1.25296875 -1.05859375 1.8984375 C-1.51363281 2.71570313 -1.96867187 3.53296875 -2.4375 4.375 C-2.88996094 5.18710938 -3.34242187 5.99921875 -3.80859375 6.8359375 C-7.35181752 13.27182593 -7.20095128 22.55517489 -5.28125 29.66015625 C-2.28077423 35.93937773 2.43025923 40.61100336 9 43 C12.99351449 43.52667349 16.97739927 43.81123718 21 44 C21 45.32 21 46.64 21 48 C16.60198253 50.19900874 11.10480338 49.4741414 6.43359375 48.421875 C-0.53208845 46.02367456 -5.57370409 41.85805759 -10 36 C-11.4361676 33.05232485 -12.31526341 30.19747533 -13 27 C-13.18046875 26.360625 -13.3609375 25.72125 -13.546875 25.0625 C-15.42605206 16.50900442 -13.97615234 7.96025391 -9.5 0.5 C-6.16522616 -2.83477384 -3.85895377 -1.77303281 0 0 Z " fill="#D2BDA8" transform="translate(77,74)"/>
<path d="M0 0 C0 0.66 0 1.32 0 2 C-1.32 2 -2.64 2 -4 2 C-4.33 2.99 -4.66 3.98 -5 5 C-6.8125 5.6953125 -6.8125 5.6953125 -9 6.125 C-11.77345082 6.53607145 -11.77345082 6.53607145 -14 8 C-10.73263993 9.10127538 -9.14145413 8.90118784 -6 7.5625 C-0.36341826 5.49230303 5.069467 5.72906194 11 6 C11 6.33 11 6.66 11 7 C10.03320312 7.08636719 9.06640625 7.17273437 8.0703125 7.26171875 C-2.14572809 8.36424194 -10.53339432 10.02263815 -17.9375 17.75 C-24.29693173 25.77428296 -24.7961152 34.34402547 -23.765625 44.25390625 C-23.54753406 45.84148003 -23.28048807 47.42225458 -23 49 C-26.26876933 46.59143313 -28.54947957 44.82661105 -30 41 C-30.1094487 35.47284044 -29.02645279 30.1336804 -27 25 C-27.66 25.33 -28.32 25.66 -29 26 C-29.65772428 29.02934491 -29.65772428 29.02934491 -30 32 C-30.66 32 -31.32 32 -32 32 C-33.76694997 25.9923701 -32.79407245 22.86062905 -29.875 17.3125 C-25.83084739 10.06600338 -21.83876193 5.87421271 -14 3 C-12.87464844 2.58041016 -12.87464844 2.58041016 -11.7265625 2.15234375 C-7.7263914 0.72371121 -4.31100777 -0.4171943 0 0 Z " fill="#42525C" transform="translate(88,55)"/>
<path d="M0 0 C1.4158649 2.91038896 2.29922267 5.846502 3 9 C2.34 9 1.68 9 1 9 C1.10699219 10.15757813 1.21398437 11.31515625 1.32421875 12.5078125 C1.44621198 14.04680396 1.56725554 15.58587091 1.6875 17.125 C1.76033203 17.88554688 1.83316406 18.64609375 1.90820312 19.4296875 C2.27977536 24.50055567 1.75621873 27.55020108 -1 32 C-1.53625 32.9075 -2.0725 33.815 -2.625 34.75 C-3.07875 35.4925 -3.5325 36.235 -4 37 C-4.33 37.66 -4.66 38.32 -5 39 C-5.99 39 -6.98 39 -8 39 C-8 39.66 -8 40.32 -8 41 C-9.65 41 -11.3 41 -13 41 C-12.67 42.32 -12.34 43.64 -12 45 C-13.65 44.67 -15.3 44.34 -17 44 C-16.505 43.21625 -16.01 42.4325 -15.5 41.625 C-13.83462035 39.21447673 -13.83462035 39.21447673 -14 37 C-12.68 36.34 -11.36 35.68 -10 35 C-9.97096108 30.91668161 -9.95318811 26.8333898 -9.9375 22.75 C-9.92912109 21.59113281 -9.92074219 20.43226562 -9.91210938 19.23828125 C-9.90727539 17.56572266 -9.90727539 17.56572266 -9.90234375 15.859375 C-9.89710693 14.83295898 -9.89187012 13.80654297 -9.88647461 12.74902344 C-9.98699301 10.31496492 -10.39145856 8.33830186 -11 6 C-10.10283149 2.71038213 -9.00936269 2.00577698 -6.0625 0.1875 C-3 -1 -3 -1 0 0 Z " fill="#784345" transform="translate(70,22)"/>
<path d="M0 0 C-0.99 0.33 -1.98 0.66 -3 1 C-2.67 1.66 -2.34 2.32 -2 3 C0.3140622 3.73075648 2.64828869 4.40138258 5 5 C5 6.32 5 7.64 5 9 C5.86625 9.0825 6.7325 9.165 7.625 9.25 C11.47734858 10.10607746 13.848219 11.67368546 17 14 C14 14 14 14 12.25 13 C9.13129787 11.61391016 6.36953388 11.87040254 3 12 C3 12.66 3 13.32 3 14 C2.38253906 14.08636719 1.76507813 14.17273438 1.12890625 14.26171875 C-3.69785347 15.06250537 -7.41102274 16.04698443 -11.5625 18.6875 C-16.23154053 21.53894975 -19.79397627 21.24304585 -25 20 C-21.03666345 14.3746191 -17.4066847 12.48617615 -11 10 C-13.97 10.66 -16.94 11.32 -20 12 C-20.99 10.68 -21.98 9.36 -23 8 C-21.9275 7.855625 -20.855 7.71125 -19.75 7.5625 C-15.81334935 7.02103843 -15.81334935 7.02103843 -12 6 C-11.67 5.34 -11.34 4.68 -11 4 C-9.68 4 -8.36 4 -7 4 C-7 3.34 -7 2.68 -7 2 C-8.89825285 2.42687983 -10.79353183 2.86699482 -12.6875 3.3125 C-14.27111328 3.67794922 -14.27111328 3.67794922 -15.88671875 4.05078125 C-19.05071876 4.87728087 -19.05071876 4.87728087 -21.76953125 6.66796875 C-22.50558594 7.10753906 -23.24164063 7.54710937 -24 8 C-24.66 7.67 -25.32 7.34 -26 7 C-17.36634998 0.98399919 -10.44836475 -0.3853905 0 0 Z " fill="#A68E77" transform="translate(95,53)"/>
<path d="M0 0 C3.65316671 1.24976756 4.78065836 1.67098753 7 5 C7.99 5 8.98 5 10 5 C12 7 12 7 12 9 C13.32 9.33 14.64 9.66 16 10 C15.34 13.63 14.68 17.26 14 21 C12.68 20.67 11.36 20.34 10 20 C9.814375 20.86625 9.62875 21.7325 9.4375 22.625 C7.55411321 27.04686464 4.96114281 29.36212105 1 32 C-1.4375 32.875 -1.4375 32.875 -4 33 C-4.65355469 33.04898438 -5.30710937 33.09796875 -5.98046875 33.1484375 C-11.40186461 33.40518849 -11.40186461 33.40518849 -13.9375 31.6875 C-15 30 -15 30 -16 27 C-13.69 27.33 -11.38 27.66 -9 28 C-9 28.66 -9 29.32 -9 30 C-7.68 30 -6.36 30 -5 30 C-5 28.35 -5 26.7 -5 25 C-4.34 25.33 -3.68 25.66 -3 26 C-3 26.66 -3 27.32 -3 28 C-1.02 27.34 0.96 26.68 3 26 C1.79618552 23.50638429 0.54571278 21.31856917 -1 19 C0.98 19.33 2.96 19.66 5 20 C5.33 19.01 5.66 18.02 6 17 C4.35 17 2.7 17 1 17 C1 16.34 1 15.68 1 15 C2.65 15 4.3 15 6 15 C5.67 14.34 5.34 13.68 5 13 C3.35 13.33 1.7 13.66 0 14 C0 13.34 0 12.68 0 12 C1.65 11.34 3.3 10.68 5 10 C3.13433512 6.37206002 3.13433512 6.37206002 0 4 C-0.66 5.65 -1.32 7.3 -2 9 C-2.99 9 -3.98 9 -5 9 C-5 8.34 -5 7.68 -5 7 C-4.34 7 -3.68 7 -3 7 C-2.690625 6.21625 -2.38125 5.4325 -2.0625 4.625 C-1 2 -1 2 0 0 Z " fill="#665834" transform="translate(119,83)"/>
<path d="M0 0 C3 1 3 1 5.375 3.625 C6.24125 4.40875 7.1075 5.1925 8 6 C10.760165 5.95020416 10.760165 5.95020416 13 5 C13.33 6.32 13.66 7.64 14 9 C17.12498166 9.3373846 17.12498166 9.3373846 19.1875 7 C19.785625 6.34 20.38375 5.68 21 5 C18.16752844 19.2696484 18.16752844 19.2696484 14 25 C13.01 25.33 12.02 25.66 11 26 C-5 7.02766798 -5 7.02766798 -5 4 C-3.35 3.34 -1.7 2.68 0 2 C0 1.34 0 0.68 0 0 Z " fill="#101621" transform="translate(80,138)"/>
<path d="M0 0 C0.56460938 0.32097656 1.12921875 0.64195313 1.7109375 0.97265625 C1.7109375 1.63265625 1.7109375 2.29265625 1.7109375 2.97265625 C0.3909375 3.30265625 -0.9290625 3.63265625 -2.2890625 3.97265625 C-2.2890625 2.98265625 -2.2890625 1.99265625 -2.2890625 0.97265625 C-2.9490625 0.97265625 -3.6090625 0.97265625 -4.2890625 0.97265625 C-4.2890625 1.63265625 -4.2890625 2.29265625 -4.2890625 2.97265625 C-5.15917969 3.21048828 -5.15917969 3.21048828 -6.046875 3.453125 C-11.5597337 5.09970491 -15.29271975 6.78136995 -19.2890625 10.97265625 C-21.09706614 14.67475895 -21.38473858 18.05043091 -21.6640625 22.09765625 C-21.94828208 25.65844493 -22.07554795 26.70091046 -24.3515625 29.59765625 C-25.310625 30.27828125 -25.310625 30.27828125 -26.2890625 30.97265625 C-26.6190625 30.31265625 -26.9490625 29.65265625 -27.2890625 28.97265625 C-27.9490625 28.97265625 -28.6090625 28.97265625 -29.2890625 28.97265625 C-29.37071746 26.7649482 -29.42854738 24.556352 -29.4765625 22.34765625 C-29.52876953 20.50300781 -29.52876953 20.50300781 -29.58203125 18.62109375 C-29.11188623 12.76622113 -26.40884575 8.0924395 -22.2890625 3.97265625 C-15.6098438 -0.48832651 -7.77684953 -3.49029254 0 0 Z " fill="#280E0A" transform="translate(99.2890625,70.02734375)"/>
<path d="M0 0 C2.97 0.495 2.97 0.495 6 1 C6 1.66 6 2.32 6 3 C6.99 2.67 7.98 2.34 9 2 C9.99 2.99 10.98 3.98 12 5 C12.61875 4.505 13.2375 4.01 13.875 3.5 C16 2 16 2 18 2 C18.66 5.63 19.32 9.26 20 13 C18.35 13.66 16.7 14.32 15 15 C14.67 13.68 14.34 12.36 14 11 C13.4225 10.9175 12.845 10.835 12.25 10.75 C9.3840696 9.79468987 8.0009236 8.21530827 6 6 C5.401875 6.350625 4.80375 6.70125 4.1875 7.0625 C2 8 2 8 -1 7 C-0.67 9.31 -0.34 11.62 0 14 C1.70840281 12.36587557 2.93453047 11.13093906 4 9 C5.9375 9.75 5.9375 9.75 8 11 C8.75 13.125 8.75 13.125 9 15 C7.35 15.66 5.7 16.32 4 17 C4 17.66 4 18.32 4 19 C4.66 19.33 5.32 19.66 6 20 C5.67 20.66 5.34 21.32 5 22 C6.65 22 8.3 22 10 22 C9.67 23.32 9.34 24.64 9 26 C7.02 25.34 5.04 24.68 3 24 C2.67 22.35 2.34 20.7 2 19 C-1.0745356 19.7763932 -1.0745356 19.7763932 -3 22 C-3 20.68 -3 19.36 -3 18 C-3.66 17.67 -4.32 17.34 -5 17 C-5 16.34 -5 15.68 -5 15 C-4.34 15 -3.68 15 -3 15 C-3.01160156 14.37351562 -3.02320312 13.74703125 -3.03515625 13.1015625 C-3.04417969 12.28429687 -3.05320312 11.46703125 -3.0625 10.625 C-3.07410156 9.81289062 -3.08570312 9.00078125 -3.09765625 8.1640625 C-3 6 -3 6 -2 4 C-3.32 3.34 -4.64 2.68 -6 2 C-4.02 1.67 -2.04 1.34 0 1 C0 0.67 0 0.34 0 0 Z " fill="#59574C" transform="translate(115,78)"/>
<path d="M0 0 C2.05078125 0.03255208 4.1015625 0.06510417 6.15234375 0.09765625 C4.6950063 4.54294254 2.38743414 7.45444845 -0.66015625 10.97265625 C-3.54824458 14.34062274 -6.37824355 17.69872324 -8.91015625 21.34765625 C-9.86921875 22.70890625 -9.86921875 22.70890625 -10.84765625 24.09765625 C-11.17765625 24.09765625 -11.50765625 24.09765625 -11.84765625 24.09765625 C-11.84765625 22.44765625 -11.84765625 20.79765625 -11.84765625 19.09765625 C-12.17765625 19.09765625 -12.50765625 19.09765625 -12.84765625 19.09765625 C-16.63545618 17.20375628 -17.54672816 14.00044053 -18.84765625 10.09765625 C-17.52765625 10.09765625 -16.20765625 10.09765625 -14.84765625 10.09765625 C-14.18765625 9.10765625 -13.52765625 8.11765625 -12.84765625 7.09765625 C-12.08453125 6.97390625 -11.32140625 6.85015625 -10.53515625 6.72265625 C-6.85847919 5.86761507 -5.3284772 3.85412397 -2.84765625 1.09765625 C-1.84765625 0.09765625 -1.84765625 0.09765625 0 0 Z " fill="#263645" transform="translate(110.84765625,126.90234375)"/>
<path d="M0 0 C2.86697492 1.28519565 4.97607712 2.57129254 7 5 C7 5.66 7 6.32 7 7 C7.99 7.33 8.98 7.66 10 8 C10.66 8.66 11.32 9.32 12 10 C10.39125 10.61875 10.39125 10.61875 8.75 11.25 C5.4389332 12.64904231 3.50293961 14.41075213 1 17 C-0.32594105 17.36162029 -1.65938457 17.69728039 -3 18 C-4.73026102 19.47890069 -4.73026102 19.47890069 -6 21 C-6.99 20.67 -7.98 20.34 -9 20 C-8.34 20.66 -7.68 21.32 -7 22 C-6.375 24.125 -6.375 24.125 -6 26 C-5.34 25.67 -4.68 25.34 -4 25 C-3.67 26.65 -3.34 28.3 -3 30 C-4.875 31.0625 -4.875 31.0625 -7 32 C-7.66 31.67 -8.32 31.34 -9 31 C-9.625 28.9375 -9.625 28.9375 -10 27 C-11.32 27.33 -12.64 27.66 -14 28 C-13.67 25.36 -13.34 22.72 -13 20 C-12.01 20 -11.02 20 -10 20 C-10 18.68 -10 17.36 -10 16 C-10.721875 16.226875 -11.44375 16.45375 -12.1875 16.6875 C-15.75584692 17.08398299 -17.13871099 16.04377787 -20 14 C-15.47111637 12.57505857 -10.98167872 13.02278458 -6.2890625 13.16015625 C-2.8520264 12.99279463 -0.1975765 12.23169488 3 11 C2.01 10.67 1.02 10.34 0 10 C-1.6415049 6.7169902 -0.51888624 3.57454967 0 0 Z " fill="#212F3E" transform="translate(101,117)"/>
<path d="M0 0 C5.17226615 4.6873662 8.98925493 10.31728181 13 16 C12.67 16.66 12.34 17.32 12 18 C11.67 17.01 11.34 16.02 11 15 C7.48809191 13.77030122 7.48809191 13.77030122 4 13 C3.67 11.68 3.34 10.36 3 9 C0.69 9 -1.62 9 -4 9 C-3.979375 10.093125 -3.95875 11.18625 -3.9375 12.3125 C-4 16 -4 16 -5 19 C-5.66 19 -6.32 19 -7 19 C-7 21.97 -7 24.94 -7 28 C-9.31 28.66 -11.62 29.32 -14 30 C-14 26.7 -14 23.4 -14 20 C-13.01 20 -12.02 20 -11 20 C-11.09023437 19.12730469 -11.18046875 18.25460938 -11.2734375 17.35546875 C-10.92226744 13.04611043 -9.46122058 11.52002391 -6.625 8.3125 C-4.24445226 5.58053806 -2.01134072 3.01701108 0 0 Z " fill="#200606" transform="translate(90,26)"/>
<path d="M0 0 C2.26595342 2.26595342 2.76657678 3.8752032 3.8125 6.875 C5.55194021 11.23301988 6.64919872 13.82459936 11 16 C14.11112141 16.67886585 17.1985804 17.1889619 20.35546875 17.60546875 C23 18 23 18 25 19 C24.67 21.31 24.34 23.62 24 26 C22.68 25.67 21.36 25.34 20 25 C20.66 25 21.32 25 22 25 C22 23.68 22 22.36 22 21 C20.87464844 21.10441406 20.87464844 21.10441406 19.7265625 21.2109375 C11.62716638 21.63936903 6.20331251 20.3739319 0 15 C-3.28276925 11.11967598 -5.51833085 7.13780422 -6 2 C-5.01 2.33 -4.02 2.66 -3 3 C-2.01 2.01 -1.02 1.02 0 0 Z " fill="#E17E57" transform="translate(76,97)"/>
<path d="M0 0 C0 0.66 0 1.32 0 2 C-1.32 2 -2.64 2 -4 2 C-4.33 2.99 -4.66 3.98 -5 5 C-6.8125 5.6953125 -6.8125 5.6953125 -9 6.125 C-11.77345082 6.53607145 -11.77345082 6.53607145 -14 8 C-10.73263993 9.10127538 -9.14145413 8.90118784 -6 7.5625 C-0.36341826 5.49230303 5.069467 5.72906194 11 6 C11 6.33 11 6.66 11 7 C10.03320312 7.08636719 9.06640625 7.17273437 8.0703125 7.26171875 C-2.88248451 8.44375328 -12.21217085 10.48948977 -19.52734375 19.46484375 C-22.48533143 24.55697639 -23.71073856 30.29842144 -25 36 C-25.33 36 -25.66 36 -26 36 C-27.29612635 29.51936825 -26.70514107 25.04187896 -24 19 C-23.34 18.01 -22.68 17.02 -22 16 C-21.01 16 -20.02 16 -19 16 C-18.34 13.03 -17.68 10.06 -17 7 C-20.15133488 8.83827868 -23.11964908 10.75972706 -26 13 C-23.70273436 7.8753305 -21.29064695 5.86770609 -16.03125 3.76171875 C-4.76923077 -0.46153846 -4.76923077 -0.46153846 0 0 Z " fill="#4B5152" transform="translate(88,55)"/>
<path d="M0 0 C0.60328125 0.34933594 1.2065625 0.69867188 1.828125 1.05859375 C2.62734375 1.51363281 3.4265625 1.96867187 4.25 2.4375 C5.03890625 2.88996094 5.8278125 3.34242187 6.640625 3.80859375 C11.09695165 6.05889115 15.28788794 6.24088163 20.25 6.5625 C21.51328125 6.64628906 22.7765625 6.73007813 24.078125 6.81640625 C25.04234375 6.87699219 26.0065625 6.93757813 27 7 C27.33 6.34 27.66 5.68 28 5 C28.33 6.98 28.66 8.96 29 11 C30.32 11.33 31.64 11.66 33 12 C25.22547793 15.65859862 16.91061482 16.47318445 8.6015625 13.98046875 C7.74304688 13.65691406 6.88453125 13.33335937 6 13 C6.99 12.67 7.98 12.34 9 12 C7.77760238 7.2462315 5.43066466 5.60043684 1.4609375 3.11328125 C0.97882813 2.74589844 0.49671875 2.37851563 0 2 C0 1.34 0 0.68 0 0 Z " fill="#50606B" transform="translate(73,116)"/>
<path d="M0 0 C1.4158649 2.91038896 2.29922267 5.846502 3 9 C2.34 9 1.68 9 1 9 C1.020625 9.9075 1.04125 10.815 1.0625 11.75 C1.0110245 14.42672588 0.7784983 16.46988052 0 19 C-2.64 19 -5.28 19 -8 19 C-8 16.03 -8 13.06 -8 10 C-8.99 9.67 -9.98 9.34 -11 9 C-10.9375 6.25 -10.9375 6.25 -10 3 C-6.82542041 0.23346406 -4.18187643 -1.39395881 0 0 Z " fill="#3F1111" transform="translate(70,22)"/>
<path d="M0 0 C4.92333253 0.42199993 6.63669793 2.55661931 10 6 C16.04698725 10.44268451 21.60503584 10.75714403 29 11 C29 12.32 29 13.64 29 15 C24.59216463 17.20391769 19.06905429 16.48775003 14.3984375 15.38671875 C8.15888818 13.19418362 2.6620887 9.63059885 -1 4 C-0.70703125 1.75 -0.70703125 1.75 0 0 Z " fill="#EDD8C0" transform="translate(69,107)"/>
<path d="M0 0 C0.33 0.66 0.66 1.32 1 2 C1.8971875 2.433125 1.8971875 2.433125 2.8125 2.875 C5.41864396 4.21530261 7.07663215 5.80186531 9 8 C9 8.66 9 9.32 9 10 C9.66 10 10.32 10 11 10 C12.32421875 11.609375 12.32421875 11.609375 13.6875 13.75 C14.14511719 14.44609375 14.60273438 15.1421875 15.07421875 15.859375 C16.16906025 18.39090725 15.9435441 19.46100862 15 22 C12 21 12 21 10.8125 18.9375 C10.544375 18.298125 10.27625 17.65875 10 17 C9.67 18.32 9.34 19.64 9 21 C8.34 21 7.68 21 7 21 C5.7109375 19.35546875 5.7109375 19.35546875 4.375 17.1875 C3.92898437 16.47980469 3.48296875 15.77210937 3.0234375 15.04296875 C2 13 2 13 2 10 C1.01 10 0.02 10 -1 10 C-1 9 -1 8 -1 7 C-1.928125 6.9071875 -1.928125 6.9071875 -2.875 6.8125 C-5 6 -5 6 -6.25 3.4375 C-6.4975 2.633125 -6.745 1.82875 -7 1 C-2.25 2.875 -2.25 2.875 0 4 C0 2.68 0 1.36 0 0 Z " fill="#E5C690" transform="translate(116,57)"/>
<path d="M0 0 C-0.99 0.33 -1.98 0.66 -3 1 C-2.67 1.66 -2.34 2.32 -2 3 C0.3140622 3.73075648 2.64828869 4.40138258 5 5 C5 6.32 5 7.64 5 9 C5.86625 9.0825 6.7325 9.165 7.625 9.25 C11.47734858 10.10607746 13.848219 11.67368546 17 14 C13.70342144 14 11.83635572 13.25666731 8.8125 12 C7.91144531 11.62875 7.01039062 11.2575 6.08203125 10.875 C5.39496094 10.58625 4.70789063 10.2975 4 10 C4 9.34 4 8.68 4 8 C1.4363053 8.28318132 -1.12561526 8.57622493 -3.6875 8.875 C-4.40873047 8.95363281 -5.12996094 9.03226563 -5.87304688 9.11328125 C-9.91300204 9.59291063 -13.23810208 10.3689188 -17 12 C-19.1875 11.8125 -19.1875 11.8125 -21 11 C-21.66 10.01 -22.32 9.02 -23 8 C-21.9275 7.855625 -20.855 7.71125 -19.75 7.5625 C-15.81334935 7.02103843 -15.81334935 7.02103843 -12 6 C-11.67 5.34 -11.34 4.68 -11 4 C-9.68 4 -8.36 4 -7 4 C-7 3.34 -7 2.68 -7 2 C-8.89825285 2.42687983 -10.79353183 2.86699482 -12.6875 3.3125 C-14.27111328 3.67794922 -14.27111328 3.67794922 -15.88671875 4.05078125 C-19.05071876 4.87728087 -19.05071876 4.87728087 -21.76953125 6.66796875 C-22.50558594 7.10753906 -23.24164063 7.54710937 -24 8 C-24.66 7.67 -25.32 7.34 -26 7 C-17.36634998 0.98399919 -10.44836475 -0.3853905 0 0 Z " fill="#777376" transform="translate(95,53)"/>
<path d="M0 0 C5.79898057 3.31849177 9.12834419 7.01738372 12 13 C8.94521976 13.29948826 6.04655878 13.42498215 3 13 C0.125 10.625 0.125 10.625 -2 8 C-5.5397007 5.64019954 -7.99106288 5.41399192 -12.1875 4.875 C-13.45980469 4.70742187 -14.73210937 4.53984375 -16.04296875 4.3671875 C-17.50669922 4.18542969 -17.50669922 4.18542969 -19 4 C-17 2 -17 2 -15.0546875 1.8046875 C-13.03645833 1.86979167 -11.01822917 1.93489583 -9 2 C-9 1.34 -9 0.68 -9 0 C-5.29328941 -1.2355702 -3.76780333 -1.06635943 0 0 Z " fill="#E5C689" transform="translate(107,65)"/>
<path d="M0 0 C0.99 0 1.98 0 3 0 C2 2 2 2 0.5625 3.1875 C-1.25636484 5.00513278 -1.25636484 5.00513278 -1.66015625 8.05859375 C-3.06604918 13.24571518 -6.56222118 16.87116121 -10 20.875 C-10.64195313 21.64585938 -11.28390625 22.41671875 -11.9453125 23.2109375 C-16.68422302 28.84211151 -16.68422302 28.84211151 -19 30 C-18.83701416 29.42024414 -18.67402832 28.84048828 -18.50610352 28.24316406 C-17.72322444 24.77326877 -17.89687641 21.287377 -17.9375 17.75 C-17.94201172 17.00492188 -17.94652344 16.25984375 -17.95117188 15.4921875 C-17.96290754 13.6614236 -17.9808415 11.83070127 -18 10 C-17.34 10 -16.68 10 -16 10 C-16.66 8.88625 -17.32 7.7725 -18 6.625 C-20 3.25 -20 3.25 -20 1 C-19.34 1 -18.68 1 -18 1 C-18 1.66 -18 2.32 -18 3 C-16.68 3.66 -15.36 4.32 -14 5 C-14 9.62 -14 14.24 -14 19 C-13.67 18.34 -13.34 17.68 -13 17 C-12.34 17 -11.68 17 -11 17 C-10.76152344 16.47921875 -10.52304688 15.9584375 -10.27734375 15.421875 C-8.58688117 12.21671659 -6.5976084 9.24183949 -4.5625 6.25 C-4.16740234 5.64800781 -3.77230469 5.04601562 -3.36523438 4.42578125 C-2.32163579 2.89424389 -1.16710744 1.43964055 0 0 Z " fill="#50495B" transform="translate(89,21)"/>
<path d="M0 0 C4.29 0 8.58 0 13 0 C13.33 0.99 13.66 1.98 14 3 C14.66 3.33 15.32 3.66 16 4 C15.835 4.680625 15.67 5.36125 15.5 6.0625 C14.92910941 9.4164822 14.93340977 12.60389805 15 16 C13.29159719 14.36587557 12.06546953 13.13093906 11 11 C8.42048126 10.30906104 8.42048126 10.30906104 5.4375 9.875 C4.42558594 9.70742187 3.41367187 9.53984375 2.37109375 9.3671875 C1.58863281 9.24601562 0.80617187 9.12484375 0 9 C0 6.03 0 3.06 0 0 Z " fill="#222F3C" transform="translate(36,93)"/>
<path d="M0 0 C0.33 1.32 0.66 2.64 1 4 C0.01 4 -0.98 4 -2 4 C-1.87238281 4.6290625 -1.74476562 5.258125 -1.61328125 5.90625 C-1.26575197 8.90312587 -1.23923705 11.06622907 -2 14 C-4.52422792 16.44052751 -7.18757933 18.16456629 -10.15234375 20.0390625 C-14.06926929 22.73631438 -16.48840165 26.01535451 -19 30 C-19.99 29.67 -20.98 29.34 -22 29 C-21.34 29 -20.68 29 -20 29 C-20 28.34 -20 27.68 -20 27 C-21.65 26.67 -23.3 26.34 -25 26 C-25 25.34 -25 24.68 -25 24 C-24.01 23.67 -23.02 23.34 -22 23 C-20.33289654 21.50014391 -20.33289654 21.50014391 -19 20 C-18.01 20.33 -17.02 20.66 -16 21 C-16 20.34 -16 19.68 -16 19 C-15.01 19 -14.02 19 -13 19 C-12.78601563 18.15179688 -12.57203125 17.30359375 -12.3515625 16.4296875 C-10.69358198 12.22244213 -8.3545413 9.46753111 -5.375 6.125 C-4.6015625 5.23554687 -4.6015625 5.23554687 -3.8125 4.328125 C-2.54976754 2.87832107 -1.27598684 1.43815239 0 0 Z " fill="#0B0A0F" transform="translate(78,42)"/>
<path d="M0 0 C3.01351454 1.50675727 3.60409521 3.88652434 5.0625 6.875 C5.58972656 7.94492188 6.11695313 9.01484375 6.66015625 10.1171875 C8 13 8 13 9 16 C9.66 16 10.32 16 11 16 C12.66666667 17.66666667 14.33333333 19.33333333 16 21 C18.28317152 22.75264204 20.62526056 24.37027685 23 26 C19.28125 27.1171875 19.28125 27.1171875 16.75 26.0625 C15.88375 25.5365625 15.88375 25.5365625 15 25 C14.34 25.66 13.68 26.32 13 27 C12.67 26.01 12.34 25.02 12 24 C10.02 24 8.04 24 6 24 C5.81824219 23.40832031 5.63648438 22.81664063 5.44921875 22.20703125 C3.84367615 17.14729511 3.84367615 17.14729511 1.4375 12.4375 C-0.58913021 9.00104008 -1.29081487 5.9327539 -2 2 C-1.34 1.34 -0.68 0.68 0 0 Z " fill="#161D27" transform="translate(54,102)"/>
<path d="M0 0 C4.455 0.99 4.455 0.99 9 2 C9 1.34 9 0.68 9 0 C9.99 0.33 10.98 0.66 12 1 C12 1.66 12 2.32 12 3 C12.99 3.33 13.98 3.66 15 4 C15.33 4.33 15.66 4.66 16 5 C16.99 5 17.98 5 19 5 C19.433125 6.093125 19.86625 7.18625 20.3125 8.3125 C21.49495641 11.09408793 22.60800043 13.06361939 25 15 C24.67 15.99 24.34 16.98 24 18 C22.02 18.33 20.04 18.66 18 19 C17.67 18.34 17.34 17.68 17 17 C16.67 18.32 16.34 19.64 16 21 C14.68 21 13.36 21 12 21 C12.16757813 20.31292969 12.33515625 19.62585938 12.5078125 18.91796875 C12.71148437 18.01691406 12.91515625 17.11585937 13.125 16.1875 C13.33382812 15.29417969 13.54265625 14.40085937 13.7578125 13.48046875 C14.28880522 10.74753366 14.28880522 10.74753366 12 8 C12 6.68 12 5.36 12 4 C10.948125 4.226875 9.89625 4.45375 8.8125 4.6875 C4.62017877 5.03113289 3.20525917 4.62248477 0 2 C0 1.34 0 0.68 0 0 Z M18 12 C18.66 12.66 19.32 13.32 20 14 C20 13.34 20 12.68 20 12 C19.34 12 18.68 12 18 12 Z M21 15 C21 15.66 21 16.32 21 17 C21.66 17 22.32 17 23 17 C23 16.34 23 15.68 23 15 C22.34 15 21.68 15 21 15 Z " fill="#26231B" transform="translate(98,92)"/>
<path d="M0 0 C0.99 0.33 1.98 0.66 3 1 C3.33 1.99 3.66 2.98 4 4 C4.66 4 5.32 4 6 4 C6 4.99 6 5.98 6 7 C7.0725 6.95875 8.145 6.9175 9.25 6.875 C14.49253731 7.04975124 14.49253731 7.04975124 17 9 C18.25 11.625 18.25 11.625 19 14 C18.34 13.67 17.68 13.34 17 13 C15.19060618 12.71043155 13.37382543 12.46630518 11.5546875 12.24609375 C10.47832031 12.11396484 9.40195313 11.98183594 8.29296875 11.84570312 C7.16503906 11.71099609 6.03710938 11.57628906 4.875 11.4375 C3.73933594 11.29892578 2.60367188 11.16035156 1.43359375 11.01757812 C-1.37722044 10.67508396 -4.18840787 10.33603805 -7 10 C-7 8.35 -7 6.7 -7 5 C-3.535 4.505 -3.535 4.505 0 4 C0 2.68 0 1.36 0 0 Z " fill="#94160E" transform="translate(94,43)"/>
<path d="M0 0 C1.65 0 3.3 0 5 0 C6.87035965 3.7407193 8.01838992 6.04372422 7.9375 10.25 C6.84769097 13.44677317 5.95959227 14.43315703 3 16 C2.01 16 1.02 16 0 16 C-0.66 16.66 -1.32 17.32 -2 18 C-3.5 16.875 -3.5 16.875 -5 15 C-5.1875 11.8125 -5.1875 11.8125 -5 9 C-3.68 8.34 -2.36 7.68 -1 7 C-2.98 6.34 -4.96 5.68 -7 5 C-7 4.67 -7 4.34 -7 4 C-4.69 4 -2.38 4 0 4 C0 2.68 0 1.36 0 0 Z M0.4375 9.375 C-1.22085796 10.88807063 -1.22085796 10.88807063 -1 13 C-0.01 12.67 0.98 12.34 2 12 C2.73323796 9.98491642 2.73323796 9.98491642 3 8 C1.77822672 7.88989535 1.77822672 7.88989535 0.4375 9.375 Z " fill="#1A1E1C" transform="translate(105,96)"/>
<path d="M0 0 C5.76220807 4.50955414 5.76220807 4.50955414 7 7.0625 C7.96992042 9.34243143 7.96992042 9.34243143 11.0625 10.9375 C14 13 14 13 14.875 15.75 C14.936875 16.86375 14.936875 16.86375 15 18 C13.4375 18.75 13.4375 18.75 11 19 C3.01093439 15.07554672 3.01093439 15.07554672 1 12 C0.8125 8.8125 0.8125 8.8125 1 6 C0.34 6 -0.32 6 -1 6 C-0.67 4.02 -0.34 2.04 0 0 Z " fill="#384855" transform="translate(67,110)"/>
<path d="M0 0 C3.61289268 0.90322317 4.94961806 1.93736299 7.3125 4.875 C9.97328798 9.90805677 9.32668516 15.47357597 9 21 C8.34 21 7.68 21 7 21 C7 21.66 7 22.32 7 23 C6.01 22.67 5.02 22.34 4 22 C4.66 20.35 5.32 18.7 6 17 C4.35 17 2.7 17 1 17 C1 16.34 1 15.68 1 15 C2.65 15 4.3 15 6 15 C5.67 14.34 5.34 13.68 5 13 C3.35 13.33 1.7 13.66 0 14 C0 13.34 0 12.68 0 12 C1.65 11.34 3.3 10.68 5 10 C3.13433512 6.37206002 3.13433512 6.37206002 0 4 C-0.66 5.65 -1.32 7.3 -2 9 C-2.99 9 -3.98 9 -5 9 C-5 8.34 -5 7.68 -5 7 C-4.34 7 -3.68 7 -3 7 C-2.690625 6.21625 -2.38125 5.4325 -2.0625 4.625 C-1 2 -1 2 0 0 Z " fill="#473B27" transform="translate(119,83)"/>
<path d="M0 0 C2 3 2 3 1.625 5.1875 C1.41875 5.785625 1.2125 6.38375 1 7 C0.34 7 -0.32 7 -1 7 C-1 7.70125 -1 8.4025 -1 9.125 C-2.36322605 13.04427488 -4.72010631 14.30751241 -8.08984375 16.5703125 C-10.26051401 18.02921255 -10.26051401 18.02921255 -12 21 C-12.99 21 -13.98 21 -15 21 C-15.66 22.32 -16.32 23.64 -17 25 C-17 21.7 -17 18.4 -17 15 C-15.5975 14.443125 -14.195 13.88625 -12.75 13.3125 C-7.18670855 10.84089642 -4.45994948 7.53488633 -2 2 C-1.34 2 -0.68 2 0 2 C0 1.34 0 0.68 0 0 Z " fill="#211F16" transform="translate(131,101)"/>
<path d="M0 0 C2.97 0.495 2.97 0.495 6 1 C6 1.66 6 2.32 6 3 C6.99 2.67 7.98 2.34 9 2 C9.99 2.99 10.98 3.98 12 5 C12.61875 4.505 13.2375 4.01 13.875 3.5 C16 2 16 2 18 2 C18.66 5.63 19.32 9.26 20 13 C18.35 13.66 16.7 14.32 15 15 C14.67 13.68 14.34 12.36 14 11 C13.4225 10.9175 12.845 10.835 12.25 10.75 C9.37868528 9.79289509 8.1256206 8.1256206 6 6 C2.12976277 4.01258088 -1.70391338 3.50542196 -6 3 C-6 2.67 -6 2.34 -6 2 C-4.02 1.67 -2.04 1.34 0 1 C0 0.67 0 0.34 0 0 Z " fill="#957849" transform="translate(115,78)"/>
<path d="M0 0 C0.33 0 0.66 0 1 0 C1.125 6.625 1.125 6.625 0 10 C-0.66 10 -1.32 10 -2 10 C-2 12.97 -2 15.94 -2 19 C-4.31 19.66 -6.62 20.32 -9 21 C-9 17.7 -9 14.4 -9 11 C-8.01 11 -7.02 11 -6 11 C-5.896875 10.236875 -5.79375 9.47375 -5.6875 8.6875 C-4.93631677 5.75105648 -4.21690342 4.95087501 -2 3 C-1.34 2.01 -0.68 1.02 0 0 Z " fill="#470806" transform="translate(85,35)"/>
<path d="M0 0 C0.144375 0.61875 0.28875 1.2375 0.4375 1.875 C0.93152225 4.03258322 0.93152225 4.03258322 2 6 C4.02463255 6.65213292 4.02463255 6.65213292 6 7 C4.73392393 7.53229326 3.46189588 8.05044544 2.1875 8.5625 C1.47980469 8.85253906 0.77210937 9.14257812 0.04296875 9.44140625 C-2 10 -2 10 -5 9 C-6.155 9.04125 -7.31 9.0825 -8.5 9.125 C-12 9 -12 9 -13.9375 7.5 C-14.4634375 6.7575 -14.4634375 6.7575 -15 6 C-13.68 5.34 -12.36 4.68 -11 4 C-10.01 4.66 -9.02 5.32 -8 6 C-7.67 4.68 -7.34 3.36 -7 2 C-4.69 2 -2.38 2 0 2 C0 1.34 0 0.68 0 0 Z " fill="#415260" transform="translate(100,121)"/>
<path d="M0 0 C1.44664088 2.9736507 2.19388056 5.77552222 3 9 C-1.62 9 -6.24 9 -11 9 C-10 3 -10 3 -8.4765625 1.50390625 C-3.33333333 -1.11111111 -3.33333333 -1.11111111 0 0 Z " fill="#3E1D21" transform="translate(70,22)"/>
<path d="M0 0 C3.21668558 3.02832111 5.74952011 6.2354126 8.25 9.875 C8.95640625 10.88304687 9.6628125 11.89109375 10.390625 12.9296875 C12.14838859 16.28309086 12.33376156 18.27299589 12 22 C8.2089881 20.55049545 4.6125362 18.84827434 1 17 C1 16.67 1 16.34 1 16 C2.98 16 4.96 16 7 16 C5.77226719 13.20969817 4.22414937 10.96167963 2.375 8.5625 C0.20837659 5.61436727 -0.5672041 3.74354708 0 0 Z " fill="#DF8D59" transform="translate(104,39)"/>
<path d="M0 0 C0 0.99 0 1.98 0 3 C-3.51200157 6.43032711 -5.97983304 8.64141665 -11 9 C-11.98226562 9.07541016 -11.98226562 9.07541016 -12.984375 9.15234375 C-18.40974314 9.39985142 -18.40974314 9.39985142 -20.9375 7.6875 C-22 6 -22 6 -23 3 C-20.69 3.33 -18.38 3.66 -16 4 C-16 4.66 -16 5.32 -16 6 C-14.68 6 -13.36 6 -12 6 C-12 4.35 -12 2.7 -12 1 C-11.34 1.33 -10.68 1.66 -10 2 C-10 2.66 -10 3.32 -10 4 C-5.17805357 3.67495741 -5.17805357 3.67495741 -1.0625 1.4375 C-0.5365625 0.7259375 -0.5365625 0.7259375 0 0 Z " fill="#60625E" transform="translate(126,107)"/>
<path d="M0 0 C2.79872437 2.52788007 4.45773019 4.20411134 5 8 C5.66 7.67 6.32 7.34 7 7 C7.33 6.01 7.66 5.02 8 4 C8.66 4.33 9.32 4.66 10 5 C10.33 5.99 10.66 6.98 11 8 C11.99 8 12.98 8 14 8 C13.67 9.65 13.34 11.3 13 13 C11 13 9 13 7 13 C6.34 12.34 5.68 11.68 5 11 C4.34 11 3.68 11 3 11 C3 10.34 3 9.68 3 9 C2.01 8.67 1.02 8.34 0 8 C-1.6875 4.4375 -1.6875 4.4375 -3 1 C-2.34 1 -1.68 1 -1 1 C-0.67 1.33 -0.34 1.66 0 2 C0 1.34 0 0.68 0 0 Z " fill="#B49464" transform="translate(118,70)"/>
<path d="M0 0 C0.33 0 0.66 0 1 0 C1.33 2.31 1.66 4.62 2 7 C2.33 5.35 2.66 3.7 3 2 C4.32 1.67 5.64 1.34 7 1 C7.63019694 11.15317287 7.63019694 11.15317287 5 14.6875 C4.34 15.120625 3.68 15.55375 3 16 C2.67 15.34 2.34 14.68 2 14 C1.34 14 0.68 14 0 14 C0 9.38 0 4.76 0 0 Z " fill="#571411" transform="translate(70,85)"/>
<path d="M0 0 C2.31 0 4.62 0 7 0 C7 3.63 7 7.26 7 11 C4.69 11 2.38 11 0 11 C0 7.37 0 3.74 0 0 Z " fill="#898789" transform="translate(86,35)"/>
<path d="M0 0 C3.03061766 2.02041177 3.72239767 2.75685563 5 6 C5 6.99 5 7.98 5 9 C5.66 9 6.32 9 7 9 C7 9.99 7 10.98 7 12 C7.66 12 8.32 12 9 12 C9.625 13.875 9.625 13.875 10 16 C9.34 16.66 8.68 17.32 8 18 C7.34 16.68 6.68 15.36 6 14 C5.34 14 4.68 14 4 14 C2.4921875 11.8125 2.4921875 11.8125 0.875 9 C0.33617187 8.071875 -0.20265625 7.14375 -0.7578125 6.1875 C-1.16773438 5.465625 -1.57765625 4.74375 -2 4 C-1.34 3.67 -0.68 3.34 0 3 C0 2.01 0 1.02 0 0 Z " fill="#2C3C47" transform="translate(59,104)"/>
<path d="M0 0 C0.66 0 1.32 0 2 0 C2 0.66 2 1.32 2 2 C3.32 2.66 4.64 3.32 6 4 C5.91932999 7.12607441 5.8064771 10.25016751 5.6875 13.375 C5.66494141 14.26445313 5.64238281 15.15390625 5.61914062 16.0703125 C5.58369141 16.92109375 5.54824219 17.771875 5.51171875 18.6484375 C5.48553467 19.43395996 5.45935059 20.21948242 5.43237305 21.02880859 C5 23 5 23 2 25 C2 19.72 2 14.44 2 9 C2.66 9 3.32 9 4 9 C3.34 7.88625 2.68 6.7725 2 5.625 C0 2.25 0 2.25 0 0 Z " fill="#CD7A6B" transform="translate(69,22)"/>
<path d="M0 0 C2.86697492 1.28519565 4.97607712 2.57129254 7 5 C7 5.66 7 6.32 7 7 C7.99 7.33 8.98 7.66 10 8 C6.48812804 10.40814077 4.27343092 11.36629408 0 11 C-1.35015859 6.94952424 -0.62084998 4.2079832 0 0 Z " fill="#3A444A" transform="translate(101,117)"/>
<path d="M0 0 C0.66 0.66 1.32 1.32 2 2 C4.06874034 2.6425235 4.06874034 2.6425235 6 3 C6.625 4.875 6.625 4.875 7 7 C6.34 7.66 5.68 8.32 5 9 C5 8.34 5 7.68 5 7 C3.68 7.33 2.36 7.66 1 8 C1.66 8.66 2.32 9.32 3 10 C2.01 10 1.02 10 0 10 C0 10.66 0 11.32 0 12 C0.66 12.33 1.32 12.66 2 13 C-0.31 13 -2.62 13 -5 13 C-3.35 8.71 -1.7 4.42 0 0 Z " fill="#2A3A49" transform="translate(52,66)"/>
<path d="M0 0 C0.66 0.99 1.32 1.98 2 3 C1.125 6.1875 1.125 6.1875 0 9 C-1.65 9 -3.3 9 -5 9 C-5.33 11.64 -5.66 14.28 -6 17 C-6.33 17 -6.66 17 -7 17 C-7.10841951 15.08458862 -7.18578079 13.16740227 -7.25 11.25 C-7.29640625 10.18265625 -7.3428125 9.1153125 -7.390625 8.015625 C-7 5 -7 5 -5.171875 2.671875 C-3 1 -3 1 0 0 Z " fill="#320807" transform="translate(78,78)"/>
<path d="M0 0 C0.66 0 1.32 0 2 0 C2 1.98 2 3.96 2 6 C3.98 6.99 5.96 7.98 8 9 C6.375 9.6875 6.375 9.6875 4 10 C0.75 8.5625 0.75 8.5625 -2 7 C-2 7.66 -2 8.32 -2 9 C-1.34 9.33 -0.68 9.66 0 10 C-0.66 11.32 -1.32 12.64 -2 14 C1.465 13.505 1.465 13.505 5 13 C5 13.66 5 14.32 5 15 C2.03 15 -0.94 15 -4 15 C-4.50610724 8.92671312 -3.04157942 5.22771463 0 0 Z " fill="#525B66" transform="translate(100,85)"/>
<path d="M0 0 C0 3.60352128 -1.08590249 5.01400788 -3 8 C-3.33 8.66 -3.66 9.32 -4 10 C-4.99 10 -5.98 10 -7 10 C-7 10.66 -7 11.32 -7 12 C-8.65 12 -10.3 12 -12 12 C-11.67 13.32 -11.34 14.64 -11 16 C-12.65 15.67 -14.3 15.34 -16 15 C-15.2575 13.824375 -15.2575 13.824375 -14.5 12.625 C-12.83462035 10.21447673 -12.83462035 10.21447673 -13 8 C-11.783125 7.608125 -10.56625 7.21625 -9.3125 6.8125 C-5.1349009 5.26908861 -2.89176768 3.34360638 0 0 Z " fill="#2C3F53" transform="translate(69,51)"/>
<path d="M0 0 C4.455 0.99 4.455 0.99 9 2 C9 1.34 9 0.68 9 0 C9.99 0.33 10.98 0.66 12 1 C12 1.66 12 2.32 12 3 C12.99 3.33 13.98 3.66 15 4 C15.33 4.33 15.66 4.66 16 5 C16.99 5 17.98 5 19 5 C19.33 6.65 19.66 8.3 20 10 C16.79604584 10 14.90600261 9.25664978 12 8 C12 6.68 12 5.36 12 4 C10.948125 4.226875 9.89625 4.45375 8.8125 4.6875 C4.62017877 5.03113289 3.20525917 4.62248477 0 2 C0 1.34 0 0.68 0 0 Z " fill="#2A3239" transform="translate(98,92)"/>
<path d="M0 0 C0.99 0 1.98 0 3 0 C3 0.66 3 1.32 3 2 C2.01 2.66 1.02 3.32 0 4 C-2.14984681 8.29969362 -3.41860359 12.23254944 -4 17 C-4.33 17 -4.66 17 -5 17 C-5.33 15.35 -5.66 13.7 -6 12 C-6.99 13.32 -7.98 14.64 -9 16 C-9.7734375 13.828125 -9.7734375 13.828125 -10 11 C-8.1640625 8.359375 -8.1640625 8.359375 -5.625 5.75 C-4.79226562 4.87859375 -3.95953125 4.0071875 -3.1015625 3.109375 C-1 1 -1 1 0 0 Z " fill="#1F262C" transform="translate(100,82)"/>
<path d="M0 0 C0.66 0.33 1.32 0.66 2 1 C1.46890625 1.48726563 0.9378125 1.97453125 0.390625 2.4765625 C-6.00814634 8.89868702 -8.10570083 15.23886632 -10 24 C-10.33 24 -10.66 24 -11 24 C-12.29612635 17.51936825 -11.70514107 13.04187896 -9 7 C-6.74012286 3.61018429 -5.66468831 3.37425812 -2 2 C-1.34 1.34 -0.68 0.68 0 0 Z " fill="#464C51" transform="translate(73,67)"/>
<path d="M0 0 C4 6 4 6 3.875 9 C3 12 3 12 1.0625 13.875 C-1 15 -1 15 -3 15 C-2.91621094 14.39671875 -2.83242187 13.7934375 -2.74609375 13.171875 C-2.64425781 12.37265625 -2.54242188 11.5734375 -2.4375 10.75 C-2.33308594 9.96109375 -2.22867188 9.1721875 -2.12109375 8.359375 C-1.99972651 5.99467126 -2.30366743 4.2488963 -3 2 C-2.01 1.34 -1.02 0.68 0 0 Z " fill="#080A0D" transform="translate(109,97)"/>
<path d="M0 0 C2.58926331 2.58926331 2.37398043 4.02705279 2.625 7.625 C2.69976562 8.62789062 2.77453125 9.63078125 2.8515625 10.6640625 C2.92503906 11.82035156 2.92503906 11.82035156 3 13 C2.01 12.67 1.02 12.34 0 12 C-0.33 11.34 -0.66 10.68 -1 10 C-1.99 9.67 -2.98 9.34 -4 9 C-5.1875 5.4375 -5.1875 5.4375 -6 2 C-5.01 2.33 -4.02 2.66 -3 3 C-2.01 2.01 -1.02 1.02 0 0 Z " fill="#BE3E34" transform="translate(76,97)"/>
<path d="M0 0 C0.33 0 0.66 0 1 0 C1 2.97 1 5.94 1 9 C-0.32 9 -1.64 9 -3 9 C-3 10.65 -3 12.3 -3 14 C-3.33 12.68 -3.66 11.36 -4 10 C-4.66 10 -5.32 10 -6 10 C-6 11.65 -6 13.3 -6 15 C-7.32 15.33 -8.64 15.66 -10 16 C-10 13.03 -10 10.06 -10 7 C-9.34 7 -8.68 7 -8 7 C-7.67 6.01 -7.34 5.02 -7 4 C-7 5.32 -7 6.64 -7 8 C-4.69 8 -2.38 8 0 8 C0 5.36 0 2.72 0 0 Z " fill="#722722" transform="translate(93,38)"/>
<path d="M0 0 C-1.48539285 5.28139679 -5.08672304 9.28054101 -9 13 C-9.66 13 -10.32 13 -11 13 C-11.33 12.01 -11.66 11.02 -12 10 C-10.671875 7.7734375 -10.671875 7.7734375 -8.75 5.375 C-8.12609375 4.57835937 -7.5021875 3.78171875 -6.859375 2.9609375 C-4.69629707 0.67970825 -3.15736222 0 0 0 Z " fill="#425762" transform="translate(117,127)"/>
<path d="M0 0 C3.875 1.75 3.875 1.75 5 4 C7.30965848 5.05352843 9.6429774 6.05719096 12 7 C11.67 8.32 11.34 9.64 11 11 C8 10 8 10 6.8125 7.9375 C6.544375 7.298125 6.27625 6.65875 6 6 C5.67 7.32 5.34 8.64 5 10 C4.34 10 3.68 10 3 10 C0.4606772 6.58168085 -0.3636198 4.24223102 0 0 Z " fill="#D9BB82" transform="translate(120,68)"/>
<path d="M0 0 C3.3 0.66 6.6 1.32 10 2 C9.67 4.31 9.34 6.62 9 9 C7.68 8.67 6.36 8.34 5 8 C5.66 8 6.32 8 7 8 C7 6.68 7 5.36 7 4 C3.04 4 -0.92 4 -5 4 C-5 3.34 -5 2.68 -5 2 C-4.01 1.67 -3.02 1.34 -2 1 C-1.34 1.33 -0.68 1.66 0 2 C0 1.34 0 0.68 0 0 Z " fill="#BB7344" transform="translate(91,114)"/>
<path d="M0 0 C0.66 0 1.32 0 2 0 C2.18175781 0.60328125 2.36351562 1.2065625 2.55078125 1.828125 C4.03023389 6.75161709 4.03023389 6.75161709 6.625 11.125 C8.64918691 13.88525487 8.67847773 16.65616839 9 20 C-1.06994819 7.99352332 -1.06994819 7.99352332 -0.875 2.4375 C-0.58625 1.633125 -0.2975 0.82875 0 0 Z " fill="#19232C" transform="translate(51,105)"/>
<path d="M0 0 C5.21979128 -0.1799928 9.07262981 0.02905192 14 2 C14.33 3.65 14.66 5.3 15 7 C12.69 7 10.38 7 8 7 C8 6.34 8 5.68 8 5 C7.01 4.67 6.02 4.34 5 4 C5.33 3.67 5.66 3.34 6 3 C4.02 2.34 2.04 1.68 0 1 C0 0.67 0 0.34 0 0 Z " fill="#A39781" transform="translate(92,55)"/>
<path d="M0 0 C2 2 2 2 2.23046875 4.3125 C2.20919922 5.6428125 2.20919922 5.6428125 2.1875 7 C2.17783203 8.3303125 2.17783203 8.3303125 2.16796875 9.6875 C2 12 2 12 1 14 C0.01 13.67 -0.98 13.34 -2 13 C-1.34 11.35 -0.68 9.7 0 8 C-1.65 8 -3.3 8 -5 8 C-5 7.34 -5 6.68 -5 6 C-3.35 6 -1.7 6 0 6 C-0.33 5.34 -0.66 4.68 -1 4 C-2.65 4.33 -4.3 4.66 -6 5 C-6 4.34 -6 3.68 -6 3 C-4.02 2.01 -2.04 1.02 0 0 Z " fill="#2E2A24" transform="translate(125,92)"/>
<path d="M0 0 C0.99 0 1.98 0 3 0 C3 0.66 3 1.32 3 2 C4.65 2.33 6.3 2.66 8 3 C6.4169423 7.2742558 3.49431596 9.26531794 0 12 C0 8.04 0 4.08 0 0 Z " fill="#612223" transform="translate(62,46)"/>
<path d="M0 0 C0.66 0 1.32 0 2 0 C1.855625 0.60585937 1.71125 1.21171875 1.5625 1.8359375 C0.19990364 7.98654607 -0.24088843 13.71013545 0 20 C-0.66 19.67 -1.32 19.34 -2 19 C-2 17.35 -2 15.7 -2 14 C-2.66 14 -3.32 14 -4 14 C-4.33 10.7 -4.66 7.4 -5 4 C-4.34 4 -3.68 4 -3 4 C-3 4.99 -3 5.98 -3 7 C-2.34 7 -1.68 7 -1 7 C-1.020625 6.030625 -1.04125 5.06125 -1.0625 4.0625 C-1 1 -1 1 0 0 Z " fill="#32414D" transform="translate(59,80)"/>
<path d="M0 0 C-0.66 0.66 -1.32 1.32 -2 2 C-2.33 2.66 -2.66 3.32 -3 4 C-5.54024004 4.47574438 -8.00051464 4.84007547 -10.5625 5.125 C-11.27341797 5.21136719 -11.98433594 5.29773438 -12.71679688 5.38671875 C-14.47689312 5.59934783 -16.23834164 5.80072697 -18 6 C-15.54403107 3.12229903 -13.09110405 2.03312874 -9.5625 0.75 C-8.61503906 0.39421875 -7.66757813 0.0384375 -6.69140625 -0.328125 C-3.94125929 -1.01466386 -2.61996705 -0.96622898 0 0 Z " fill="#92775A" transform="translate(92,63)"/>
<path d="M0 0 C0 0.66 0 1.32 0 2 C3.465 1.505 3.465 1.505 7 1 C-0.2 7 -0.2 7 -6 7 C-6.99 7.66 -7.98 8.32 -9 9 C-7.45665977 5.21180126 -4.44676575 0 0 0 Z " fill="#281110" transform="translate(81,73)"/>
<path d="M0 0 C2.475 0.99 2.475 0.99 5 2 C3.35 4.64 1.7 7.28 0 10 C-0.99 9.67 -1.98 9.34 -3 9 C-2.34 9 -1.68 9 -1 9 C-1 8.34 -1 7.68 -1 7 C-2.65 6.67 -4.3 6.34 -6 6 C-6 5.34 -6 4.68 -6 4 C-5.01 3.67 -4.02 3.34 -3 3 C-1.33289654 1.50014391 -1.33289654 1.50014391 0 0 Z " fill="#0E1820" transform="translate(59,62)"/>
<path d="M0 0 C-1.98 0.99 -1.98 0.99 -4 2 C-0.67913229 4.77000825 -0.67913229 4.77000825 3 7 C2.67 7.66 2.34 8.32 2 9 C1.32582031 8.52949219 0.65164062 8.05898437 -0.04296875 7.57421875 C-3.52566663 5.7201537 -6.4063881 5.28707434 -10.3125 4.8125 C-11.56675781 4.65394531 -12.82101563 4.49539062 -14.11328125 4.33203125 C-15.06589844 4.22246094 -16.01851563 4.11289063 -17 4 C-15 2 -15 2 -13.0546875 1.8046875 C-11.03645833 1.86979167 -9.01822917 1.93489583 -7 2 C-7 1.34 -7 0.68 -7 0 C-3.86650268 -1.04449911 -3.01031744 -0.93423645 0 0 Z " fill="#D2BE9C" transform="translate(105,65)"/>
<path d="M0 0 C2.97 0.495 2.97 0.495 6 1 C6 2.32 6 3.64 6 5 C6.86625 5.0825 7.7325 5.165 8.625 5.25 C12.47734858 6.10607746 14.848219 7.67368546 18 10 C14.70342144 10 12.83635572 9.25666731 9.8125 8 C8.91144531 7.62875 8.01039062 7.2575 7.08203125 6.875 C6.39496094 6.58625 5.70789063 6.2975 5 6 C5 5.34 5 4.68 5 4 C1.04 4 -2.92 4 -7 4 C-4 2 -4 2 0 2 C0 1.34 0 0.68 0 0 Z " fill="#7B7567" transform="translate(94,57)"/>
<path d="M0 0 C1.65 0 3.3 0 5 0 C4.28547412 4.76350585 3.20465156 9.34201396 2 14 C1.566875 13.34 1.13375 12.68 0.6875 12 C-0.1478125 11.01 -0.1478125 11.01 -1 10 C-1.99 10 -2.98 10 -4 10 C-4 9.34 -4 8.68 -4 8 C-3.01 8 -2.02 8 -1 8 C-0.26919734 6.02253397 0.39421747 4.01927511 1 2 C0.67 1.34 0.34 0.68 0 0 Z " fill="#0D141D" transform="translate(52,73)"/>
<path d="M0 0 C0.99 0.33 1.98 0.66 3 1 C2.505 1.78375 2.01 2.5675 1.5 3.375 C-0.16537965 5.78552327 -0.16537965 5.78552327 0 8 C0.66 8.33 1.32 8.66 2 9 C-1.32534757 10.10844919 -3.62182575 9.84454356 -7 9 C-6.3125 6.625 -6.3125 6.625 -5 4 C-2.375 2.6875 -2.375 2.6875 0 2 C0 1.34 0 0.68 0 0 Z " fill="#2D414E" transform="translate(106,132)"/>
<path d="M0 0 C1.8125 0.0625 1.8125 0.0625 4 1 C6.125 3.9375 6.125 3.9375 8 7 C8.66 7.66 9.32 8.32 10 9 C10 9.99 10 10.98 10 12 C9.01 12 8.02 12 7 12 C7 11.34 7 10.68 7 10 C6.34 10 5.68 10 5 10 C3.4921875 8.03125 3.4921875 8.03125 1.875 5.5 C1.33617187 4.6646875 0.79734375 3.829375 0.2421875 2.96875 C-0.16773438 2.3190625 -0.57765625 1.669375 -1 1 C-0.67 0.67 -0.34 0.34 0 0 Z " fill="#33434A" transform="translate(62,125)"/>
<path d="M0 0 C0.66 0.33 1.32 0.66 2 1 C0.89847594 2.43952597 -0.2063304 3.87654071 -1.3125 5.3125 C-1.92738281 6.11300781 -2.54226562 6.91351563 -3.17578125 7.73828125 C-4.69916307 9.62701374 -6.24434407 11.33077636 -8 13 C-8.66 12.67 -9.32 12.34 -10 12 C-9.67 10.35 -9.34 8.7 -9 7 C-8.01 6.67 -7.02 6.34 -6 6 C-4.64172029 4.35360035 -3.30745749 2.68704193 -2 1 C-1.34 0.67 -0.68 0.34 0 0 Z " fill="#1C3033" transform="translate(125,115)"/>
<path d="M0 0 C0.99 0.33 1.98 0.66 3 1 C3.33 2.65 3.66 4.3 4 6 C6.31 6.66 8.62 7.32 11 8 C9.68 8.33 8.36 8.66 7 9 C7.33 9.66 7.66 10.32 8 11 C8.039992 12.99960012 8.04346799 15.00047242 8 17 C4.87731597 14.91821065 4.49581425 14.44328863 3.3125 11.125 C3.06113281 10.44695312 2.80976562 9.76890625 2.55078125 9.0703125 C2 7 2 7 2 3 C1.34 2.67 0.68 2.34 0 2 C0 1.34 0 0.68 0 0 Z " fill="#15191F" transform="translate(92,93)"/>
<path d="M0 0 C2.97 0.495 2.97 0.495 6 1 C6 1.66 6 2.32 6 3 C6.99 2.67 7.98 2.34 9 2 C9.99 3.32 10.98 4.64 12 6 C11.67 6.66 11.34 7.32 11 8 C10.35933594 7.72285156 9.71867187 7.44570312 9.05859375 7.16015625 C3.98223263 5.03428818 -0.51151988 3.47725914 -6 3 C-6 2.67 -6 2.34 -6 2 C-4.02 1.67 -2.04 1.34 0 1 C0 0.67 0 0.34 0 0 Z " fill="#796C57" transform="translate(115,78)"/>
<path d="M0 0 C0.33 1.32 0.66 2.64 1 4 C0.01 4 -0.98 4 -2 4 C-2 7.3 -2 10.6 -2 14 C-3.98 14.99 -3.98 14.99 -6 16 C-6.66791182 9.58804648 -4.80087659 6.10937508 -1 1 C-0.67 0.67 -0.34 0.34 0 0 Z " fill="#290909" transform="translate(78,42)"/>
<path d="M0 0 C1.04449911 3.13349732 0.93423645 3.98968256 0 7 C-2.64 7 -5.28 7 -8 7 C-7.67 5.02 -7.34 3.04 -7 1 C-3.535 0.505 -3.535 0.505 0 0 Z " fill="#591818" transform="translate(70,34)"/>
<path d="M0 0 C1.2065625 0.0309375 1.2065625 0.0309375 2.4375 0.0625 C1.880625 0.289375 1.32375 0.51625 0.75 0.75 C-1.77441217 2.04726448 -1.77441217 2.04726448 -4.125 4.625 C-6.5625 7.0625 -6.5625 7.0625 -9.5625 8.0625 C-11.57125442 7.78678861 -13.57428687 7.46014263 -15.5625 7.0625 C-15.5625 6.4025 -15.5625 5.7425 -15.5625 5.0625 C-14.70785156 4.78535156 -13.85320312 4.50820312 -12.97265625 4.22265625 C-11.86792969 3.86042969 -10.76320313 3.49820313 -9.625 3.125 C-8.52285156 2.76535156 -7.42070313 2.40570313 -6.28515625 2.03515625 C-0.63146552 0.0154016 -0.63146552 0.0154016 0 0 Z " fill="#19212B" transform="translate(110.5625,125.9375)"/>
<path d="M0 0 C1.9375 0.75 1.9375 0.75 4 2 C4.75 4.125 4.75 4.125 5 6 C3.03533587 7.06775224 1.03144641 8.06553465 -1 9 C-1.66 8.67 -2.32 8.34 -3 8 C-2.37240135 5.07120629 -1.41377341 2.63904371 0 0 Z " fill="#D8C189" transform="translate(119,87)"/>
<path d="M0 0 C1.98 0.66 3.96 1.32 6 2 C6 3.98 6 5.96 6 8 C4.02 8 2.04 8 0 8 C0 5.36 0 2.72 0 0 Z " fill="#273643" transform="translate(46,84)"/>
<path d="M0 0 C1.65 0 3.3 0 5 0 C5 0.66 5 1.32 5 2 C5.66 2 6.32 2 7 2 C8.6875 4.375 8.6875 4.375 10 7 C9.67 7.66 9.34 8.32 9 9 C4.5937814 7.65365543 2.56922298 5.80625626 0 2 C0 1.34 0 0.68 0 0 Z " fill="#F3E29F" transform="translate(120,65)"/>
<path d="M0 0 C0 0.66 0 1.32 0 2 C-1.32 2 -2.64 2 -4 2 C-4.33 2.99 -4.66 3.98 -5 5 C-6.84765625 5.73046875 -6.84765625 5.73046875 -9.0625 6.1875 C-9.79597656 6.34605469 -10.52945313 6.50460938 -11.28515625 6.66796875 C-12.13400391 6.83232422 -12.13400391 6.83232422 -13 7 C-12 5 -11 3 -10 1 C-6.6322481 0.06451336 -3.4815554 -0.09947301 0 0 Z " fill="#4F5B62" transform="translate(88,55)"/>
<path d="M0 0 C1.32 0 2.64 0 4 0 C4 2.31 4 4.62 4 7 C2.02 7.66 0.04 8.32 -2 9 C-1.125 2.25 -1.125 2.25 0 0 Z " fill="#73100E" transform="translate(78,47)"/>
<path d="M0 0 C2.475 0.99 2.475 0.99 5 2 C4.01 2.495 4.01 2.495 3 3 C2.67 4.32 2.34 5.64 2 7 C-3.94 5.515 -3.94 5.515 -10 4 C-10 3.67 -10 3.34 -10 3 C-8.35 3 -6.7 3 -5 3 C-5 2.34 -5 1.68 -5 1 C-4.34 1 -3.68 1 -3 1 C-2.67 1.66 -2.34 2.32 -2 3 C-1.01 3 -0.02 3 1 3 C0.67 2.01 0.34 1.02 0 0 Z " fill="#6D3E33" transform="translate(100,70)"/>
<path d="M0 0 C6.46341868 -0.3511314 11.30977257 -0.25155853 17 3 C18.9375 5.1875 18.9375 5.1875 20 7 C19.34 7.66 18.68 8.32 18 9 C16.68 8.34 15.36 7.68 14 7 C14 5.68 14 4.36 14 3 C9.38 2.34 4.76 1.68 0 1 C0 0.67 0 0.34 0 0 Z " fill="#CDB08F" transform="translate(92,54)"/>
<path d="M0 0 C1.32 1.32 2.64 2.64 4 4 C3.34 4 2.68 4 2 4 C1.67 4.99 1.34 5.98 1 7 C0.67 6.34 0.34 5.68 0 5 C-0.33 6.32 -0.66 7.64 -1 9 C-2.32 9 -3.64 9 -5 9 C-3.375 2.25 -3.375 2.25 0 0 Z " fill="#3F3D36" transform="translate(115,104)"/>
<path d="M0 0 C1.98 0 3.96 0 6 0 C6.99 2.97 7.98 5.94 9 9 C5.25846263 7.75282088 3.62482484 5.90112219 1 3 C0.67 2.01 0.34 1.02 0 0 Z " fill="#0A0509" transform="translate(104,117)"/>
<path d="M0 0 C2.51083114 1.25541557 2.87125446 2.50063488 4 5 C4 3.35 4 1.7 4 0 C4.66 0 5.32 0 6 0 C6 2.64 6 5.28 6 8 C5.01 8.495 5.01 8.495 4 9 C0.60085025 7.86695008 -0.05254451 6.87481525 -2 4 C-1.34 2.68 -0.68 1.36 0 0 Z " fill="#565450" transform="translate(105,84)"/>
<path d="M0 0 C0.33 0.66 0.66 1.32 1 2 C1.66 1.67 2.32 1.34 3 1 C3.33 2.65 3.66 4.3 4 6 C2.125 7.0625 2.125 7.0625 0 8 C-0.66 7.67 -1.32 7.34 -2 7 C-2.625 4.9375 -2.625 4.9375 -3 3 C-4.32 3.33 -5.64 3.66 -7 4 C-6.67 3.01 -6.34 2.02 -6 1 C-4 0 -4 0 0 0 Z " fill="#17222E" transform="translate(94,141)"/>
<path d="M0 0 C1.32 0.99 2.64 1.98 4 3 C3.67 3.66 3.34 4.32 3 5 C4.65 5 6.3 5 8 5 C7.67 6.32 7.34 7.64 7 9 C4.125 8.375 4.125 8.375 1 7 C-0.375 3.875 -0.375 3.875 -1 1 C-0.67 0.67 -0.34 0.34 0 0 Z " fill="#91886B" transform="translate(117,95)"/>
<path d="M0 0 C1.32 0 2.64 0 4 0 C4 0.66 4 1.32 4 2 C3.01 2 2.02 2 1 2 C1.804375 2.309375 2.60875 2.61875 3.4375 2.9375 C6 5 6 5 6.5546875 7.203125 C6.79037673 9.47431216 6.94736564 11.71758269 7 14 C6.34 13.67 5.68 13.34 5 13 C4.87625 12.030625 4.7525 11.06125 4.625 10.0625 C4.3508355 6.88417172 4.3508355 6.88417172 1.9375 5.625 C1.298125 5.41875 0.65875 5.2125 0 5 C0 3.35 0 1.7 0 0 Z " fill="#17202A" transform="translate(47,79)"/>
<path d="M0 0 C1.65 0 3.3 0 5 0 C3.35 3.63 1.7 7.26 0 11 C-0.33 11 -0.66 11 -1 11 C-1.02688151 9.35425434 -1.04634123 7.70838587 -1.0625 6.0625 C-1.07410156 5.14597656 -1.08570312 4.22945313 -1.09765625 3.28515625 C-1 1 -1 1 0 0 Z " fill="#C22624" transform="translate(115,115)"/>
<path d="M0 0 C3.3 0 6.6 0 10 0 C9.34 1.32 8.68 2.64 8 4 C5.36 4 2.72 4 0 4 C0 2.68 0 1.36 0 0 Z " fill="#2C3B49" transform="translate(36,94)"/>
<path d="M0 0 C0.66 0 1.32 0 2 0 C2.49230769 6.4 2.49230769 6.4 0 9.4375 C-0.99 10.2109375 -0.99 10.2109375 -2 11 C-2.33 10.34 -2.66 9.68 -3 9 C-3.66 9 -4.32 9 -5 9 C-5 8.34 -5 7.68 -5 7 C-4.01 6.67 -3.02 6.34 -2 6 C-2 6.66 -2 7.32 -2 8 C-1.34 8 -0.68 8 0 8 C0 7.01 0 6.02 0 5 C-0.66 5 -1.32 5 -2 5 C-1.34 3.35 -0.68 1.7 0 0 Z " fill="#8B221F" transform="translate(75,90)"/>
<path d="M0 0 C1.65 0.33 3.3 0.66 5 1 C4.02501855 2.5027237 3.04490611 4.00211963 2.0625 5.5 C1.51722656 6.3353125 0.97195312 7.170625 0.41015625 8.03125 C-0.05519531 8.6809375 -0.52054687 9.330625 -1 10 C-1.33 10 -1.66 10 -2 10 C-2.22036864 6.14354879 -1.60355101 3.50776784 0 0 Z " fill="#202A35" transform="translate(101,141)"/>
<path d="M0 0 C1.32 0 2.64 0 4 0 C4.33 3.96 4.66 7.92 5 12 C2.12552091 9.12552091 1.18779195 7.74611307 0 4 C0 2.68 0 1.36 0 0 Z " fill="#591315" transform="translate(110,116)"/>
<path d="M0 0 C0.99 0.33 1.98 0.66 3 1 C3 1.66 3 2.32 3 3 C9.93 3.495 9.93 3.495 17 4 C17 4.33 17 4.66 17 5 C12.55522251 6.11119437 8.55553378 6.29390541 4 6 C1.32568511 4.18836733 1.04079641 3.12238923 0 0 Z " fill="#424E63" transform="translate(103,110)"/>
<path d="M0 0 C0.66 0.66 1.32 1.32 2 2 C4.06874034 2.6425235 4.06874034 2.6425235 6 3 C6.625 4.875 6.625 4.875 7 7 C6.34 7.66 5.68 8.32 5 9 C5 8.34 5 7.68 5 7 C3.5459375 6.814375 3.5459375 6.814375 2.0625 6.625 C1.051875 6.41875 0.04125 6.2125 -1 6 C-1.33 5.34 -1.66 4.68 -2 4 C-1.0625 1.875 -1.0625 1.875 0 0 Z " fill="#212E37" transform="translate(52,66)"/>
<path d="M0 0 C2.35964273 0.40683495 3.85934088 0.89814339 5.8125 2.3125 C7 4 7 4 6.6875 6.1875 C6.3471875 7.0846875 6.3471875 7.0846875 6 8 C5.54625 7.195625 5.0925 6.39125 4.625 5.5625 C3.25274335 2.91143428 3.25274335 2.91143428 1 2 C0.34 3.65 -0.32 5.3 -1 7 C-1.99 7 -2.98 7 -4 7 C-4 6.34 -4 5.68 -4 5 C-3.34 5 -2.68 5 -2 5 C-1.34 3.35 -0.68 1.7 0 0 Z " fill="#4C4331" transform="translate(118,85)"/>
<path d="M0 0 C2.38564077 0.57584432 4.66682784 1.22227595 7 2 C8.1875 4.5625 8.1875 4.5625 9 7 C4.545 6.01 4.545 6.01 0 5 C0 3.35 0 1.7 0 0 Z " fill="#85521A" transform="translate(104,50)"/>
<path d="M0 0 C0.66 0 1.32 0 2 0 C2 0.66 2 1.32 2 2 C2.66 2 3.32 2 4 2 C4.33 1.34 4.66 0.68 5 0 C7.475 3.465 7.475 3.465 10 7 C9.67 7.66 9.34 8.32 9 9 C8.67 8.01 8.34 7.02 8 6 C4.48809191 4.77030122 4.48809191 4.77030122 1 4 C0.67 2.68 0.34 1.36 0 0 Z " fill="#3D0E0A" transform="translate(93,35)"/>
<path d="M0 0 C1.2065625 0.0309375 1.2065625 0.0309375 2.4375 0.0625 C1.18063901 2.57622198 -0.21804031 3.54549667 -2.5625 5.0625 C-3.5525 5.0625 -4.5425 5.0625 -5.5625 5.0625 C-5.5625 5.7225 -5.5625 6.3825 -5.5625 7.0625 C-6.5525 6.7325 -7.5425 6.4025 -8.5625 6.0625 C-2.5625 0.0625 -2.5625 0.0625 0 0 Z " fill="#23313B" transform="translate(111.5625,126.9375)"/>
<path d="M0 0 C3.3 0.33 6.6 0.66 10 1 C9.67 2.32 9.34 3.64 9 5 C10.65 5 12.3 5 14 5 C12.125 6.0625 12.125 6.0625 10 7 C9.34 6.67 8.68 6.34 8 6 C8 5.34 8 4.68 8 4 C5.36 3.34 2.72 2.68 0 2 C0 1.34 0 0.68 0 0 Z " fill="#586670" transform="translate(83,122)"/>
<path d="M0 0 C0.33 0 0.66 0 1 0 C1 2.97 1 5.94 1 9 C1.66 9 2.32 9 3 9 C3 11.64 3 14.28 3 17 C2.34 17 1.68 17 1 17 C-0.18681726 13.43954823 -0.09689832 10.56191663 -0.0625 6.8125 C-0.05347656 5.54019531 -0.04445312 4.26789063 -0.03515625 2.95703125 C-0.02355469 1.98121094 -0.01195312 1.00539063 0 0 Z " fill="#3D4E5A" transform="translate(54,85)"/>
<path d="M0 0 C3.3 0 6.6 0 10 0 C9.34 0.66 8.68 1.32 8 2 C7.01 2 6.02 2 5 2 C5 2.66 5 3.32 5 4 C3.02 4 1.04 4 -1 4 C-0.67 2.68 -0.34 1.36 0 0 Z " fill="#C09B69" transform="translate(93,63)"/>
<path d="M0 0 C5.94155844 5.74350649 5.94155844 5.74350649 6.125 9.6875 C6.08375 10.450625 6.0425 11.21375 6 12 C2.59156258 9.11593757 1.13408616 7.6291735 0.1875 3.1875 C0.125625 2.135625 0.06375 1.08375 0 0 Z " fill="#8C4F4C" transform="translate(98,31)"/>
<path d="M0 0 C0.99 0 1.98 0 3 0 C2 2 2 2 0.6875 3.1875 C-0.95604357 4.95278754 -1.87175305 6.51115802 -3 8.625 C-5 12 -5 12 -8 13 C-6.46462766 8.08680853 -3.58639157 3.67764836 0 0 Z " fill="#8C4751" transform="translate(89,21)"/>
<path d="M0 0 C0.99 0.495 0.99 0.495 2 1 C2.99 1.33 3.98 1.66 5 2 C4.67 2.66 4.34 3.32 4 4 C4.99 3.67 5.98 3.34 7 3 C5.86968848 6.39093457 5.46191293 6.53808707 3 9 C1.5 7.875 1.5 7.875 0 6 C-0.1875 2.8125 -0.1875 2.8125 0 0 Z " fill="#2E3540" transform="translate(100,105)"/>
<path d="M0 0 C2.33524782 2.25740623 4.18705073 4.2805761 6 7 C5.625 9.1875 5.625 9.1875 5 11 C1.87729874 8.48169253 1.05476902 7.2738451 0.25 3.25 C0.1675 2.1775 0.085 1.105 0 0 Z " fill="#B27E67" transform="translate(104,39)"/>
<path d="M0 0 C0.99 0 1.98 0 3 0 C3 0.66 3 1.32 3 2 C3.99 2 4.98 2 6 2 C6 2.66 6 3.32 6 4 C6.66 4 7.32 4 8 4 C7.67 5.32 7.34 6.64 7 8 C6.01 7.67 5.02 7.34 4 7 C4 6.01 4 5.02 4 4 C3.01 4.33 2.02 4.66 1 5 C0.67 3.35 0.34 1.7 0 0 Z " fill="#7C160A" transform="translate(96,43)"/>
<path d="M0 0 C0.33 0.99 0.66 1.98 1 3 C0.21625 3.598125 -0.5675 4.19625 -1.375 4.8125 C-4.14574323 6.91085249 -4.14574323 6.91085249 -6 10 C-6.66 10 -7.32 10 -8 10 C-7.04735876 5.80837855 -6.36739592 4.2792209 -2.875 1.625 C-1.92625 1.08875 -0.9775 0.5525 0 0 Z " fill="#0E080C" transform="translate(125,112)"/>
<path d="M0 0 C5.75 1.75 5.75 1.75 8 4 C8.33 3.34 8.66 2.68 9 2 C8.43628586 5.26954202 7.50037734 6.82575883 5 9 C4.01 8.67 3.02 8.34 2 8 C2.66 7.67 3.32 7.34 4 7 C2.79618552 4.50638429 1.54571278 2.31856917 0 0 Z " fill="#4C4C39" transform="translate(118,102)"/>
<path d="M0 0 C1.65 0.33 3.3 0.66 5 1 C3.71480435 3.86697492 2.42870746 5.97607712 0 8 C-0.66 8 -1.32 8 -2 8 C-1.34 5.36 -0.68 2.72 0 0 Z " fill="#252514" transform="translate(108,104)"/>
<path d="M0 0 C8.57142857 -0.14285714 8.57142857 -0.14285714 12 1 C12 1.66 12 2.32 12 3 C5.74557657 4.34899329 5.74557657 4.34899329 2.0625 2.625 C1.381875 2.08875 0.70125 1.5525 0 1 C0 0.67 0 0.34 0 0 Z " fill="#E18652" transform="translate(79,113)"/>
<path d="M0 0 C0.99 0.33 1.98 0.66 3 1 C2.01 1.33 1.02 1.66 0 2 C0 2.66 0 3.32 0 4 C0.99 4 1.98 4 3 4 C3.33 6.31 3.66 8.62 4 11 C3.34 10.67 2.68 10.34 2 10 C2 9.34 2 8.68 2 8 C1.34 8 0.68 8 0 8 C-0.66 5.69 -1.32 3.38 -2 1 C-1.34 0.67 -0.68 0.34 0 0 Z " fill="#D3B27D" transform="translate(115,63)"/>
<path d="M0 0 C1.65 0 3.3 0 5 0 C5 0.99 5 1.98 5 3 C4.01 3 3.02 3 2 3 C2 5.97 2 8.94 2 12 C1.34 11.67 0.68 11.34 0 11 C0.33 8.36 0.66 5.72 1 3 C0.01 3.33 -0.98 3.66 -2 4 C-2 3.34 -2 2.68 -2 2 C-1.34 2 -0.68 2 0 2 C0 1.34 0 0.68 0 0 Z " fill="#3F3A30" transform="translate(110,81)"/>
<path d="M0 0 C0.66 0.33 1.32 0.66 2 1 C2 1.66 2 2.32 2 3 C1.34 3 0.68 3 0 3 C-0.33 3.66 -0.66 4.32 -1 5 C-1.99 5.33 -2.98 5.66 -4 6 C-4.66 6.66 -5.32 7.32 -6 8 C-6.33 6.68 -6.66 5.36 -7 4 C-1.7265625 0.77734375 -1.7265625 0.77734375 0 0 Z " fill="#42474B" transform="translate(108,80)"/>
<path d="M0 0 C0 0.33 0 0.66 0 1 C-1.98 1 -3.96 1 -6 1 C-6.12375 1.639375 -6.2475 2.27875 -6.375 2.9375 C-6.58125 3.618125 -6.7875 4.29875 -7 5 C-9.70879335 6.35439668 -12.00933268 6.06501451 -15 6 C-15 5.67 -15 5.34 -15 5 C-13.35 5 -11.7 5 -10 5 C-10 3.68 -10 2.36 -10 1 C-6.52674819 -0.1577506 -3.63932552 -0.06866652 0 0 Z " fill="#A88963" transform="translate(99,62)"/>
<path d="M0 0 C3.50695293 0.5653911 5.02732613 1.68722726 7.3125 4.375 C7.84488281 4.98085937 8.37726563 5.58671875 8.92578125 6.2109375 C9.28027344 6.80132812 9.63476562 7.39171875 10 8 C9.67 8.99 9.34 9.98 9 11 C8.51789063 10.37351563 8.03578125 9.74703125 7.5390625 9.1015625 C6.90742187 8.28429687 6.27578125 7.46703125 5.625 6.625 C4.99851562 5.81289062 4.37203125 5.00078125 3.7265625 4.1640625 C2.03226506 1.95776805 2.03226506 1.95776805 0 0 Z " fill="#05070D" transform="translate(78,148)"/>
<path d="M0 0 C1.98 1.65 3.96 3.3 6 5 C4.1875 6.0625 4.1875 6.0625 2 7 C1.01 6.67 0.02 6.34 -1 6 C-0.67 4.02 -0.34 2.04 0 0 Z " fill="#4E5A61" transform="translate(67,110)"/>
<path d="M0 0 C3.85478218 -0.35858439 5.57759458 -0.2754818 8.875 1.875 C9.57625 2.57625 10.2775 3.2775 11 4 C11 4.66 11 5.32 11 6 C7.2089881 4.55049545 3.6125362 2.84827434 0 1 C0 0.67 0 0.34 0 0 Z " fill="#AE7A39" transform="translate(105,55)"/>
<path d="M0 0 C1.65 0.33 3.3 0.66 5 1 C5 2.32 5 3.64 5 5 C2.03 4.67 -0.94 4.34 -4 4 C-2.68 3.67 -1.36 3.34 0 3 C0 2.01 0 1.02 0 0 Z " fill="#A82F19" transform="translate(99,50)"/>
<path d="M0 0 C1.32 0 2.64 0 4 0 C7.125 6.625 7.125 6.625 6 10 C4.02 6.7 2.04 3.4 0 0 Z " fill="#1C2F34" transform="translate(53,115)"/>
<path d="M0 0 C1.04976964 3.14930893 1.10131595 5.38814456 1.0625 8.6875 C1.05347656 9.68136719 1.04445312 10.67523438 1.03515625 11.69921875 C1.02355469 12.45847656 1.01195312 13.21773437 1 14 C0.01 14.495 0.01 14.495 -1 15 C-2.01058283 11.76462662 -1.99200982 9.17014394 -1.625 5.8125 C-1.53476562 4.93207031 -1.44453125 4.05164063 -1.3515625 3.14453125 C-1 1 -1 1 0 0 Z " fill="#415461" transform="translate(61,85)"/>
<path d="M0 0 C1.11375 0.556875 1.11375 0.556875 2.25 1.125 C1.26 2.445 0.27 3.765 -0.75 5.125 C-1.36875 4.650625 -1.9875 4.17625 -2.625 3.6875 C-4.65705546 2.10082559 -4.65705546 2.10082559 -6.75 1.125 C-4.02098495 -0.69434337 -3.21400584 -1.02263822 0 0 Z " fill="#BAA792" transform="translate(74.75,72.875)"/>
<path d="M0 0 C1.58294782 -0.05437607 3.16644256 -0.09296271 4.75 -0.125 C5.63171875 -0.14820312 6.5134375 -0.17140625 7.421875 -0.1953125 C10.1135858 0.00860498 11.69904974 0.63448279 14 2 C14 2.66 14 3.32 14 4 C12.68 4.33 11.36 4.66 10 5 C10 4.01 10 3.02 10 2 C6.7 1.67 3.4 1.34 0 1 C0 0.67 0 0.34 0 0 Z " fill="#4C241B" transform="translate(87,69)"/>
<path d="M0 0 C0.66 0 1.32 0 2 0 C3.35439668 2.70879335 3.06501451 5.00933268 3 8 C2.01 8.33 1.02 8.66 0 9 C0 6.03 0 3.06 0 0 Z " fill="#8A1411" transform="translate(83,45)"/>
<path d="M0 0 C2.004001 0.25492592 3.98659787 0.66597641 5.9609375 1.09375 C5.9609375 1.42375 5.9609375 1.75375 5.9609375 2.09375 C4.7028125 2.155625 3.4446875 2.2175 2.1484375 2.28125 C-0.05010326 2.48256404 -0.05010326 2.48256404 -2.0390625 3.09375 C-3.9015063 5.50233714 -3.9015063 5.50233714 -5.0390625 8.09375 C-6.0290625 8.42375 -7.0190625 8.75375 -8.0390625 9.09375 C-4.08078349 0.18762223 -4.08078349 0.18762223 0 0 Z " fill="#270E10" transform="translate(87.0390625,32.90625)"/>
<path d="M0 0 C0.66 0.99 1.32 1.98 2 3 C1.34 3.66 0.68 4.32 0 5 C-0.99 5 -1.98 5 -3 5 C-3.33 5.66 -3.66 6.32 -4 7 C-4.66 7 -5.32 7 -6 7 C-5.8125 5.1875 -5.8125 5.1875 -5 3 C-2.4375 1.25 -2.4375 1.25 0 0 Z " fill="#240606" transform="translate(78,78)"/>
<path d="M0 0 C1.65 0.33 3.3 0.66 5 1 C3.68 2.65 2.36 4.3 1 6 C0.34 5.67 -0.32 5.34 -1 5 C-0.67 3.35 -0.34 1.7 0 0 Z " fill="#303841" transform="translate(116,122)"/>
<path d="M0 0 C0 0.66 0 1.32 0 2 C1.8871875 1.690625 1.8871875 1.690625 3.8125 1.375 C7.4014758 0.78664331 7.75073878 0.83382585 11 3 C8.87527424 3.05386629 6.75016348 3.09273071 4.625 3.125 C2.84996094 3.15980469 2.84996094 3.15980469 1.0390625 3.1953125 C-2 3 -2 3 -4 1 C-2 0 -2 0 0 0 Z " fill="#73899D" transform="translate(110,111)"/>
<path d="M0 0 C2 2 2 2 2.125 5.125 C2.08375 6.07375 2.0425 7.0225 2 8 C-0.375 7.6875 -0.375 7.6875 -3 7 C-3.66 6.01 -4.32 5.02 -5 4 C-4.01 3.67 -3.02 3.34 -2 3 C-1.67 3.99 -1.34 4.98 -1 6 C-0.34 6.33 0.32 6.66 1 7 C0.67 4.69 0.34 2.38 0 0 Z " fill="#E25C47" transform="translate(78,103)"/>
<path d="M0 0 C0.99 0 1.98 0 3 0 C3.33 2.97 3.66 5.94 4 9 C3.01 8.67 2.02 8.34 1 8 C0.67 5.36 0.34 2.72 0 0 Z " fill="#DB4033" transform="translate(75,101)"/>
<path d="M0 0 C3.39417765 3.12621626 5.6062718 5.56541027 7 10 C4.0625 8.9375 4.0625 8.9375 1 7 C0.125 3.3125 0.125 3.3125 0 0 Z " fill="#5B3015" transform="translate(103,43)"/>
<path d="M0 0 C0.99 0.33 1.98 0.66 3 1 C3.33 2.65 3.66 4.3 4 6 C2.68 6.33 1.36 6.66 0 7 C-0.33 6.34 -0.66 5.68 -1 5 C-0.34 5 0.32 5 1 5 C1 4.34 1 3.68 1 3 C0.34 2.67 -0.32 2.34 -1 2 C-0.67 1.34 -0.34 0.68 0 0 Z " fill="#3E4F5C" transform="translate(78,122)"/>
<path d="M0 0 C1.98 0 3.96 0 6 0 C6 0.99 6 1.98 6 3 C3.69 3.33 1.38 3.66 -1 4 C-0.67 2.68 -0.34 1.36 0 0 Z " fill="#39100B" transform="translate(89,70)"/>
<path d="M0 0 C0.99 0 1.98 0 3 0 C3 2.64 3 5.28 3 8 C2.01 8 1.02 8 0 8 C0 5.36 0 2.72 0 0 Z " fill="#656A6E" transform="translate(88,37)"/>
<path d="M0 0 C0.66 0.33 1.32 0.66 2 1 C1.43628586 4.26954202 0.50037734 5.82575883 -2 8 C-2.66 7.67 -3.32 7.34 -4 7 C-2.68 4.69 -1.36 2.38 0 0 Z " fill="#3C2C37" transform="translate(90,22)"/>
<path d="M0 0 C2 1.375 2 1.375 4 3 C4 3.66 4 4.32 4 5 C4.99 5.33 5.98 5.66 7 6 C4.69 5.67 2.38 5.34 0 5 C-0.5625 3.0625 -0.5625 3.0625 -1 1 C-0.67 0.67 -0.34 0.34 0 0 Z " fill="#202D39" transform="translate(104,119)"/>
<path d="M0 0 C0.66 0.66 1.32 1.32 2 2 C1.625 4.625 1.625 4.625 1 7 C0.34 7 -0.32 7 -1 7 C-1.33 5.02 -1.66 3.04 -2 1 C-1.34 0.67 -0.68 0.34 0 0 Z " fill="#3D4B54" transform="translate(65,106)"/>
<path d="M0 0 C1.2380014 3.57644848 0.74926071 6.33694766 0 10 C-0.66 10 -1.32 10 -2 10 C-2.6875 7.25 -2.6875 7.25 -3 4 C-1.5625 1.625 -1.5625 1.625 0 0 Z " fill="#41525F" transform="translate(58,77)"/>
<path d="M0 0 C2.475 0.99 2.475 0.99 5 2 C4.67 3.32 4.34 4.64 4 6 C3.01 5.67 2.02 5.34 1 5 C0.67 3.35 0.34 1.7 0 0 Z " fill="#E2C484" transform="translate(127,73)"/>
<path d="M0 0 C0.33 0 0.66 0 1 0 C1 2.64 1 5.28 1 8 C0.01 8 -0.98 8 -2 8 C-2 6.02 -2 4.04 -2 2 C-1.34 2 -0.68 2 0 2 C0 1.34 0 0.68 0 0 Z " fill="#AA1C0F" transform="translate(94,45)"/>
<path d="M0 0 C0.99 0 1.98 0 3 0 C3 0.99 3 1.98 3 3 C2.01 3 1.02 3 0 3 C0.33 4.65 0.66 6.3 1 8 C0.01 8.33 -0.98 8.66 -2 9 C-1.125 2.25 -1.125 2.25 0 0 Z " fill="#5B0B0B" transform="translate(78,47)"/>
<path d="M0 0 C0.33 0 0.66 0 1 0 C1.06058594 0.68707031 1.12117188 1.37414063 1.18359375 2.08203125 C1.26738281 2.98308594 1.35117188 3.88414063 1.4375 4.8125 C1.51871094 5.70582031 1.59992188 6.59914063 1.68359375 7.51953125 C1.93489767 10.12743559 1.93489767 10.12743559 3 13 C2.01 13.66 1.02 14.32 0 15 C0 10.05 0 5.1 0 0 Z " fill="#D6725C" transform="translate(71,32)"/>
<path d="M0 0 C2.97 0.33 5.94 0.66 9 1 C8.01 2.485 8.01 2.485 7 4 C4.97954558 3.39816251 2.97888961 2.72693904 1 2 C0.67 1.34 0.34 0.68 0 0 Z " fill="#1A242D" transform="translate(81,130)"/>
<path d="M0 0 C3.5786304 1.65167557 6.74820188 3.78286492 10 6 C8.375 6.8125 8.375 6.8125 6 7 C2.75 4.6875 2.75 4.6875 0 2 C0 1.34 0 0.68 0 0 Z " fill="#10151B" transform="translate(67,122)"/>
<path d="M0 0 C1.32 0 2.64 0 4 0 C3.67 1.98 3.34 3.96 3 6 C1.68 5.67 0.36 5.34 -1 5 C-0.34 5 0.32 5 1 5 C0.67 3.35 0.34 1.7 0 0 Z " fill="#8F8470" transform="translate(97,117)"/>
<path d="M0 0 C0.99 0 1.98 0 3 0 C3.33 1.65 3.66 3.3 4 5 C1 5 1 5 -1 4 C-0.67 2.68 -0.34 1.36 0 0 Z " fill="#353B3B" transform="translate(114,97)"/>
<path d="M0 0 C0 4.38968456 -2.12805101 5.76905739 -5 9 C-5.33 8.01 -5.66 7.02 -6 6 C-5.34 6 -4.68 6 -4 6 C-3.896875 5.38125 -3.79375 4.7625 -3.6875 4.125 C-3 2 -3 2 0 0 Z " fill="#616364" transform="translate(99,81)"/>
<path d="M0 0 C-1.12073862 0.83905565 -2.24674547 1.67107831 -3.375 2.5 C-4.00148438 2.9640625 -4.62796875 3.428125 -5.2734375 3.90625 C-7 5 -7 5 -9 5 C-8.8125 3.125 -8.8125 3.125 -8 1 C-4.70594381 -0.82039948 -3.63772813 -1.21257604 0 0 Z " fill="#3F2F2F" transform="translate(88,75)"/>
<path d="M0 0 C0.99 0 1.98 0 3 0 C4.125 3.75 4.125 3.75 3 6 C2.34 6 1.68 6 1 6 C1 5.34 1 4.68 1 4 C0.34 3.67 -0.32 3.34 -1 3 C-0.67 2.01 -0.34 1.02 0 0 Z " fill="#47150D" transform="translate(103,73)"/>
<path d="M0 0 C0 0.66 0 1.32 0 2 C0.99 2.33 1.98 2.66 3 3 C0.69 3 -1.62 3 -4 3 C-4 2.34 -4 1.68 -4 1 C-4.99 0.67 -5.98 0.34 -7 0 C-3.86650268 -1.04449911 -3.01031744 -0.93423645 0 0 Z " fill="#958C7C" transform="translate(104,59)"/>
<path d="M0 0 C1.65 0 3.3 0 5 0 C3.68 0.33 2.36 0.66 1 1 C1 1.66 1 2.32 1 3 C1.66 3.33 2.32 3.66 3 4 C1.02 4.66 -0.96 5.32 -3 6 C-2 4 -1 2 0 0 Z " fill="#48525A" transform="translate(78,56)"/>
<path d="M0 0 C0.99 0 1.98 0 3 0 C3.33 1.98 3.66 3.96 4 6 C2.68 5.67 1.36 5.34 0 5 C0 3.35 0 1.7 0 0 Z " fill="#561616" transform="translate(62,46)"/>
<path d="M0 0 C2.4375 0.8125 2.4375 0.8125 5 2 C5.33 2.99 5.66 3.98 6 5 C4.35 4.67 2.7 4.34 1 4 C0.67 2.68 0.34 1.36 0 0 Z " fill="#2A3B51" transform="translate(78,132)"/>
<path d="M0 0 C2.97 0.99 5.94 1.98 9 3 C7.02 3.99 7.02 3.99 5 5 C2.25 3.75 2.25 3.75 0 2 C0 1.34 0 0.68 0 0 Z " fill="#272B31" transform="translate(98,92)"/>
<path d="M0 0 C2.475 0.99 2.475 0.99 5 2 C5 2.33 5 2.66 5 3 C3.35 3 1.7 3 0 3 C-0.33 3.66 -0.66 4.32 -1 5 C-1.66 4.34 -2.32 3.68 -3 3 C-2.01 2.01 -1.02 1.02 0 0 Z " fill="#1F2C39" transform="translate(59,62)"/>
<path d="M0 0 C0.99 0.33 1.98 0.66 3 1 C2.01 1.33 1.02 1.66 0 2 C0.33 3.32 0.66 4.64 1 6 C-0.65 5.67 -2.3 5.34 -4 5 C-2.25 1.125 -2.25 1.125 0 0 Z " fill="#3D4C57" transform="translate(57,61)"/>
<path d="M0 0 C2.31 0 4.62 0 7 0 C6.67 1.32 6.34 2.64 6 4 C4.125 3.6875 4.125 3.6875 2 3 C1.34 2.01 0.68 1.02 0 0 Z " fill="#59656B" transform="translate(72,61)"/>
<path d="M0 0 C2 3 2 3 1.625 5.1875 C1.41875 5.785625 1.2125 6.38375 1 7 C-2 6 -2 6 -3 5 C-2.67 4.01 -2.34 3.02 -2 2 C-1.34 2 -0.68 2 0 2 C0 1.34 0 0.68 0 0 Z " fill="#362B1A" transform="translate(131,101)"/>
<path d="M0 0 C0.99 0.33 1.98 0.66 3 1 C3.6875 3.0625 3.6875 3.0625 4 5 C2.02 4.34 0.04 3.68 -2 3 C-1.34 2.01 -0.68 1.02 0 0 Z " fill="#F3D996" transform="translate(126,69)"/>
</svg>
